<svg aria-hidden="true" style="position: absolute; width: 0; height: 0; overflow: hidden;" version="1.1" xmlns="http://www.w3.org/2000/svg" xmlns:xlink="http://www.w3.org/1999/xlink">
<defs>
<symbol id="icon-user_svg" viewBox="0 0 32 32">
<title>user_svg</title>
<path d="M16 16c5.21 0 8.954 1.382 11.114 4.238 0.575 0.761 0.886 1.688 0.886 2.642v1.5c0 1.999-1.62 3.619-3.619 3.619h-16.762c-1.999 0-3.619-1.62-3.619-3.619v-1.5c0-0.954 0.311-1.881 0.886-2.642 2.16-2.857 5.904-4.239 11.114-4.239zM16 18.667c-4.451 0-7.407 1.091-8.986 3.18-0.225 0.298-0.347 0.661-0.347 1.034v1.5c0 0.526 0.426 0.952 0.952 0.952h16.762c0.526 0 0.952-0.426 0.952-0.952v-1.5c0-0.373-0.122-0.736-0.347-1.034-1.58-2.089-4.535-3.18-8.986-3.18zM16 2.667c2.946 0 5.333 2.388 5.333 5.333s-2.388 5.333-5.333 5.333c-2.946 0-5.333-2.388-5.333-5.333s2.388-5.333 5.333-5.333zM16 5.333c-1.473 0-2.667 1.194-2.667 2.667s1.194 2.667 2.667 2.667c1.473 0 2.667-1.194 2.667-2.667s-1.194-2.667-2.667-2.667z"></path>
</symbol>
<symbol id="icon-username_svg" viewBox="0 0 32 32">
<title>username_svg</title>
<path d="M16 1.333c8.1 0 14.667 6.566 14.667 14.667 0 4.338-2.19 7.21-5.278 7.339-1.996 0.083-3.733-1.033-4.664-2.851-1.184 1.25-2.863 2.030-4.724 2.030-3.6 0-6.519-2.918-6.519-6.519s2.918-6.519 6.519-6.519c1.508 0 2.897 0.512 4.001 1.372l-0.001-0.187c0-0.736 0.597-1.333 1.333-1.333 0.684 0 1.247 0.515 1.324 1.178l0.009 0.155v6.667c0 2.117 1.208 3.4 2.611 3.341 1.511-0.063 2.722-1.652 2.722-4.675 0-6.627-5.373-12-12-12s-12 5.373-12 12c0 6.627 5.373 12 12 12 1.066 0 2.112-0.139 3.12-0.409 0.711-0.191 1.443 0.231 1.633 0.942s-0.231 1.443-0.942 1.633c-1.233 0.331-2.512 0.501-3.812 0.501-8.1 0-14.667-6.566-14.667-14.667s6.566-14.667 14.667-14.667zM16 12.148c-2.127 0-3.852 1.725-3.852 3.852s1.725 3.852 3.852 3.852c2.127 0 3.852-1.725 3.852-3.852s-1.725-3.852-3.852-3.852z"></path>
</symbol>
<symbol id="icon-up_svg" viewBox="0 0 32 32">
<title>up_svg</title>
<path d="M16 12.552l8.391 8.391c0.521 0.521 1.365 0.521 1.886 0s0.521-1.365 0-1.886l-9.333-9.333c-0.521-0.521-1.365-0.521-1.886 0l-9.333 9.333c-0.521 0.521-0.521 1.365 0 1.886s1.365 0.521 1.886 0l8.391-8.391z"></path>
</symbol>
<symbol id="icon-unread_svg" viewBox="0 0 32 32">
<title>unread_svg</title>
<path d="M8 2.667h16c2.856 0 5.188 2.245 5.327 5.067l0.007 0.266v5.333c0 0.736-0.597 1.333-1.333 1.333-0.684 0-1.247-0.515-1.324-1.178l-0.009-0.155v-5.333c0-1.406-1.088-2.558-2.468-2.659l-0.199-0.007h-16c-1.406 0-2.558 1.088-2.659 2.468l-0.007 0.199v18.114l2.94-2.94c0.279-0.279 0.642-0.453 1.030-0.497l0.196-0.011h7.834c0.736 0 1.333 0.597 1.333 1.333 0 0.684-0.515 1.247-1.178 1.324l-0.155 0.009h-7.448l-4.715 4.715c-0.573 0.573-1.501 0.573-2.074 0-0.236-0.236-0.383-0.544-0.42-0.872l-0.009-0.166v-21.011c0-2.856 2.245-5.188 5.067-5.327l0.266-0.007zM25.333 16c2.946 0 5.333 2.388 5.333 5.333s-2.388 5.333-5.333 5.333c-2.946 0-5.333-2.388-5.333-5.333s2.388-5.333 5.333-5.333zM25.333 18.667c-1.473 0-2.667 1.194-2.667 2.667s1.194 2.667 2.667 2.667c1.473 0 2.667-1.194 2.667-2.667s-1.194-2.667-2.667-2.667z"></path>
</symbol>
<symbol id="icon-unpin_svg" viewBox="0 0 32 32">
<title>unpin_svg</title>
<path d="M4.292 3.167l0.113-0.124c0.488-0.473 1.245-0.499 1.761-0.085l0.124 0.113 22 22.667c0.513 0.528 0.5 1.373-0.028 1.885-0.488 0.473-1.245 0.499-1.761 0.085l-0.124-0.113-4.806-4.95-0.082 0.012-0.155 0.009h-4v6.667c0 0.684-0.515 1.247-1.178 1.324l-0.155 0.009c-0.684 0-1.247-0.515-1.324-1.178l-0.009-0.155v-6.667h-7.182c-1.105 0-2-0.895-2-2 0-0.42 0.132-0.827 0.375-1.166l0.13-0.163 3.963-4.459-0.423-4.64-5.154-5.31c-0.473-0.488-0.499-1.245-0.085-1.761v0zM12.485 13.283l0.124 1.355c0.059 0.652-0.124 1.3-0.509 1.823l-0.154 0.19-2.977 3.348 10.035 0.001-6.519-6.717zM24.198 2.667c1.105 0 2 0.895 2 2 0 0.519-0.202 1.015-0.558 1.386l-0.141 0.133-2.887 2.475-0.437 4.808c-0.067 0.733-0.715 1.274-1.449 1.207-0.681-0.062-1.196-0.626-1.212-1.293l0.005-0.156 0.437-4.808c0.056-0.615 0.323-1.189 0.752-1.626l0.168-0.157 1.519-1.302h-10.396c-0.736 0-1.333-0.597-1.333-1.333 0-0.684 0.515-1.247 1.178-1.324l0.155-0.009h12.198z"></path>
</symbol>
<symbol id="icon-unmute_svg" viewBox="0 0 32 32">
<title>unmute_svg</title>
<path d="M14.667 26.667h2.667c0.736 0 1.333 0.597 1.333 1.333 0 0.684-0.515 1.247-1.178 1.324l-0.155 0.009h-2.667c-0.736 0-1.333-0.597-1.333-1.333 0-0.684 0.515-1.247 1.178-1.324l0.155-0.009zM16 2.667c5.155 0 9.333 4.179 9.333 9.333v7.596l2.443 3.664c0.591 0.886-0.044 2.073-1.109 2.073h-21.333c-1.065 0-1.7-1.187-1.109-2.073l2.443-3.664v-7.596c0-5.155 4.179-9.333 9.333-9.333zM16 5.333c-3.682 0-6.667 2.985-6.667 6.667v7.596c0 0.526-0.156 1.041-0.448 1.479l-1.061 1.591h16.351l-1.061-1.591c-0.292-0.438-0.448-0.953-0.448-1.479v-7.596c0-3.682-2.985-6.667-6.667-6.667z"></path>
</symbol>
<symbol id="icon-unlock_svg" viewBox="0 0 32 32">
<title>unlock_svg</title>
<path d="M23.711 1.339l0.289-0.006c3.585 0 6.509 2.83 6.66 6.377l0.006 0.289v4c0 0.736-0.597 1.333-1.333 1.333-0.684 0-1.247-0.515-1.324-1.178l-0.009-0.155v-4c0-2.209-1.791-4-4-4-2.13 0-3.872 1.665-3.993 3.765l-0.007 0.235v2.667c2.209 0 4 1.791 4 4v10.667c0 2.209-1.791 4-4 4h-13.333c-2.209 0-4-1.791-4-4v-10.667c0-2.209 1.791-4 4-4h10.667v-2.667c0-3.585 2.83-6.509 6.377-6.66zM20 13.333h-13.333c-0.736 0-1.333 0.597-1.333 1.333v10.667c0 0.736 0.597 1.333 1.333 1.333h13.333c0.736 0 1.333-0.597 1.333-1.333v-10.667c0-0.736-0.597-1.333-1.333-1.333zM13.333 18c1.105 0 2 0.895 2 2s-0.895 2-2 2c-1.105 0-2-0.895-2-2s0.895-2 2-2z"></path>
</symbol>
<symbol id="icon-unarchive_svg" viewBox="0 0 32 32">
<title>unarchive_svg</title>
<path d="M10 1.333h12c1.574 0 3.061 0.695 4.071 1.888l0.195 0.245 2 2.667c0.623 0.831 0.989 1.823 1.055 2.855l0.011 0.345v14.667c0 2.946-2.388 5.333-5.333 5.333h-16c-2.946 0-5.333-2.388-5.333-5.333v-14.667c0-1.039 0.303-2.052 0.869-2.917l0.198-0.283 2-2.667c0.944-1.259 2.393-2.032 3.953-2.124l0.313-0.009zM24 9.333h-16c-1.473 0-2.667 1.194-2.667 2.667v12c0 1.473 1.194 2.667 2.667 2.667h16c1.473 0 2.667-1.194 2.667-2.667v-12c0-1.473-1.194-2.667-2.667-2.667zM16.943 14.391l4 4c0.521 0.521 0.521 1.365 0 1.886s-1.365 0.521-1.886 0l-3.057-3.057-3.057 3.057c-0.521 0.521-1.365 0.521-1.886 0s-0.521-1.365 0-1.886l4-4c0.521-0.521 1.365-0.521 1.886 0zM22 4h-12c-0.763 0-1.486 0.327-1.989 0.89l-0.144 0.176-1.359 1.812c0.474-0.138 0.975-0.212 1.493-0.212h16c0.518 0 1.018 0.074 1.491 0.211l-1.358-1.811c-0.458-0.61-1.153-0.993-1.906-1.057l-0.228-0.010z"></path>
</symbol>
<symbol id="icon-stop_svg" viewBox="0 0 32 32">
<title>stop_svg</title>
<path d="M16 1.333c8.1 0 14.667 6.566 14.667 14.667s-6.566 14.667-14.667 14.667c-8.1 0-14.667-6.566-14.667-14.667s6.566-14.667 14.667-14.667zM16 4c-6.627 0-12 5.373-12 12s5.373 12 12 12c6.627 0 12-5.373 12-12s-5.373-12-12-12zM10.667 14.667h10.667c0.736 0 1.333 0.597 1.333 1.333 0 0.684-0.515 1.247-1.178 1.324l-0.155 0.009h-10.667c-0.736 0-1.333-0.597-1.333-1.333 0-0.684 0.515-1.247 1.178-1.324l0.155-0.009z"></path>
</symbol>
<symbol id="icon-sport_svg" viewBox="0 0 32 32">
<title>sport_svg</title>
<path d="M16 1.333c8.1 0 14.667 6.566 14.667 14.667s-6.566 14.667-14.667 14.667c-8.1 0-14.667-6.566-14.667-14.667s6.566-14.667 14.667-14.667zM19.793 4.612l-3.107 1.865c-0.369 0.222-0.819 0.249-1.209 0.083l-0.163-0.083-3.107-1.865c-2.29 0.762-4.273 2.196-5.716 4.067 0.041 0.067 0.074 0.139 0.101 0.215l0.035 0.116 0.667 2.667c0.099 0.398 0.010 0.815-0.236 1.135l-0.115 0.131-2.667 2.667c-0.083 0.083-0.175 0.154-0.273 0.21l-0.004 0.18c0 3.073 1.155 5.877 3.055 8l2.945 0c0.468 0 0.902 0.246 1.143 0.647l1.771 2.952c0.985 0.261 2.019 0.401 3.086 0.401s2.102-0.139 3.086-0.401l1.77-2.952c0.211-0.351 0.57-0.583 0.97-0.636l0.174-0.011 2.945-0c1.9-2.123 3.055-4.926 3.055-8l-0.002-0.18c-0.098-0.057-0.19-0.127-0.274-0.211l-2.667-2.667c-0.331-0.331-0.464-0.812-0.351-1.266l0.667-2.667c0.030-0.119 0.075-0.23 0.132-0.332-1.349-1.753-3.176-3.123-5.286-3.915l-0.426-0.151zM16.8 9.6l5.333 4c0.497 0.373 0.671 1.040 0.418 1.608l-2.667 6c-0.214 0.482-0.692 0.792-1.218 0.792h-5.333c-0.527 0-1.004-0.31-1.218-0.792l-2.667-6c-0.252-0.568-0.079-1.235 0.418-1.608l5.333-4c0.474-0.356 1.126-0.356 1.6 0zM16 12.333l-3.683 2.763 1.883 4.237h3.6l1.883-4.237-3.683-2.763z"></path>
</symbol>
<symbol id="icon-smile_svg" viewBox="0 0 32 32">
<title>smile_svg</title>
<path d="M16 1.333c8.1 0 14.667 6.566 14.667 14.667s-6.566 14.667-14.667 14.667c-8.1 0-14.667-6.566-14.667-14.667s6.566-14.667 14.667-14.667zM16 4c-6.627 0-12 5.373-12 12s5.373 12 12 12c6.627 0 12-5.373 12-12s-5.373-12-12-12zM8.888 18.2c0.623-0.318 1.386-0.071 1.704 0.553 1.029 2.017 3.103 3.314 5.408 3.314 2.302 0 4.372-1.292 5.403-3.305 0.319-0.623 1.082-0.869 1.705-0.55s0.869 1.082 0.55 1.705c-1.46 2.851-4.396 4.683-7.658 4.683-3.267 0-6.206-1.838-7.664-4.696-0.318-0.623-0.071-1.386 0.553-1.704zM11.667 10.667c0.92 0 1.667 0.895 1.667 2s-0.746 2-1.667 2c-0.92 0-1.667-0.895-1.667-2s0.746-2 1.667-2zM20.333 10.667c0.92 0 1.667 0.895 1.667 2s-0.746 2-1.667 2c-0.92 0-1.667-0.895-1.667-2s0.746-2 1.667-2z"></path>
</symbol>
<symbol id="icon-smallscreen_svg" viewBox="0 0 32 32">
<title>smallscreen_svg</title>
<path d="M20 18.667h5.333c0.736 0 1.333 0.597 1.333 1.333 0 0.684-0.515 1.247-1.178 1.324l-0.155 0.009h-4v4c0 0.736-0.597 1.333-1.333 1.333-0.684 0-1.247-0.515-1.324-1.178l-0.009-0.155v-5.333c0-0.684 0.515-1.247 1.178-1.324l0.155-0.009zM12 18.667c0.736 0 1.333 0.597 1.333 1.333v5.333c0 0.736-0.597 1.333-1.333 1.333s-1.333-0.597-1.333-1.333v-4h-4c-0.736 0-1.333-0.597-1.333-1.333s0.597-1.333 1.333-1.333h5.333zM20 5.333c0.736 0 1.333 0.597 1.333 1.333v4h4c0.736 0 1.333 0.597 1.333 1.333s-0.597 1.333-1.333 1.333h-5.333c-0.736 0-1.333-0.597-1.333-1.333v-5.333c0-0.736 0.597-1.333 1.333-1.333zM12 5.333c0.684 0 1.247 0.515 1.324 1.178l0.009 0.155v5.333c0 0.684-0.515 1.247-1.178 1.324l-0.155 0.009h-5.333c-0.736 0-1.333-0.597-1.333-1.333 0-0.684 0.515-1.247 1.178-1.324l0.155-0.009h4v-4c0-0.736 0.597-1.333 1.333-1.333z"></path>
</symbol>
<symbol id="icon-settings_svg" viewBox="0 0 32 32">
<title>settings_svg</title>
<path d="M17.939 1.333c1.399 0 2.658 1.067 2.895 2.445l0.348 2.023c0.687 0.312 1.337 0.691 1.941 1.132l1.85-0.687c1.323-0.492 2.877 0.082 3.573 1.308l1.272 2.24c0.69 1.216 0.401 2.845-0.662 3.75l-1.529 1.301c0.043 0.39 0.065 0.773 0.065 1.155s-0.022 0.765-0.065 1.154l1.528 1.3c1.066 0.907 1.352 2.535 0.662 3.75l-1.272 2.24c-0.696 1.227-2.254 1.798-3.573 1.308l-1.85-0.687c-0.604 0.441-1.254 0.821-1.941 1.132l-0.348 2.023c-0.236 1.375-1.499 2.445-2.895 2.445h-2.544c-1.399 0-2.658-1.067-2.895-2.445l-0.348-2.024c-0.687-0.312-1.337-0.691-1.94-1.132l-1.85 0.688c-1.323 0.492-2.877-0.082-3.573-1.308l-1.272-2.24c-0.69-1.216-0.402-2.845 0.662-3.75l1.529-1.301c-0.043-0.391-0.065-0.773-0.065-1.154s0.022-0.763 0.065-1.154l-1.529-1.301c-1.066-0.908-1.351-2.535-0.661-3.75l1.272-2.24c0.697-1.226 2.254-1.798 3.573-1.307l1.85 0.688c0.483-0.353 0.996-0.666 1.533-0.937l0.408-0.195 0.348-2.024c0.237-1.374 1.5-2.445 2.895-2.445h2.544zM17.939 4h-2.544c-0.094 0-0.25 0.133-0.267 0.231l-0.473 2.748c-0.081 0.468-0.404 0.858-0.849 1.023-0.92 0.342-1.762 0.835-2.493 1.457-0.368 0.313-0.876 0.403-1.329 0.235l-2.551-0.948c-0.090-0.034-0.274 0.034-0.325 0.125l-1.272 2.24c-0.058 0.103-0.020 0.325 0.071 0.402l2.087 1.776c0.358 0.305 0.529 0.776 0.45 1.239-0.089 0.524-0.135 1.005-0.135 1.471s0.046 0.947 0.135 1.471c0.079 0.464-0.092 0.935-0.45 1.24l-2.087 1.776c-0.089 0.076-0.129 0.3-0.071 0.402l1.272 2.24c0.052 0.092 0.233 0.159 0.325 0.125l2.551-0.948c0.453-0.168 0.961-0.078 1.329 0.235 0.731 0.623 1.574 1.115 2.493 1.457 0.445 0.166 0.768 0.555 0.849 1.023l0.473 2.748c0.018 0.102 0.17 0.231 0.267 0.231h2.544c0.094 0 0.25-0.132 0.267-0.231l0.473-2.748c0.081-0.468 0.404-0.858 0.849-1.024 0.92-0.342 1.762-0.835 2.492-1.457 0.368-0.314 0.876-0.404 1.329-0.235l2.552 0.948c0.090 0.034 0.274-0.034 0.325-0.125l1.272-2.24c0.058-0.103 0.020-0.325-0.071-0.402l-2.087-1.776c-0.359-0.305-0.53-0.777-0.45-1.242 0.089-0.517 0.134-1 0.134-1.469s-0.045-0.951-0.134-1.469c-0.080-0.464 0.091-0.936 0.45-1.241l2.087-1.776c0.089-0.076 0.129-0.301 0.071-0.403l-1.272-2.24c-0.052-0.092-0.233-0.159-0.325-0.125l-2.552 0.948c-0.453 0.168-0.962 0.078-1.329-0.235-0.73-0.622-1.572-1.115-2.492-1.457-0.445-0.166-0.769-0.556-0.849-1.024l-0.473-2.748c-0.017-0.102-0.17-0.231-0.267-0.231zM16.667 13.333c1.473 0 2.667 1.194 2.667 2.667s-1.194 2.667-2.667 2.667c-1.473 0-2.667-1.194-2.667-2.667s1.194-2.667 2.667-2.667z"></path>
</symbol>
<symbol id="icon-send_svg" viewBox="0 0 32 32">
<title>send_svg</title>
<path d="M3.538 3.901l1.989 9.137c0.162 0.742 0.786 1.294 1.543 1.362l14.524 1.311c0.159 0.014 0.277 0.155 0.263 0.315-0.013 0.14-0.123 0.25-0.263 0.263l-14.525 1.312c-0.757 0.068-1.381 0.62-1.543 1.362l-1.989 9.136c-0.136 0.626 0.261 1.243 0.886 1.38 0.25 0.055 0.512 0.025 0.743-0.085l26.047-12.345c0.579-0.274 0.825-0.966 0.551-1.544-0.115-0.242-0.309-0.437-0.551-0.551l-26.047-12.345c-0.579-0.274-1.27-0.027-1.544 0.551-0.11 0.232-0.14 0.493-0.085 0.743z"></path>
</symbol>
<symbol id="icon-sending_svg" viewBox="0 0 32 32">
<title>sending_svg</title>
<path d="M16.842 4.884c6.139 0 11.116 4.977 11.116 11.116s-4.977 11.116-11.116 11.116c-6.139 0-11.116-4.977-11.116-11.116s4.977-11.116 11.116-11.116zM16.842 6.905c-5.023 0-9.095 4.072-9.095 9.095s4.072 9.095 9.095 9.095c5.023 0 9.095-4.072 9.095-9.095s-4.072-9.095-9.095-9.095zM15.909 16.573l-0.036-0.062-0.080-0.194-0.034-0.149-0.010-0.084-0.003-5.979c0-0.605 0.49-1.095 1.095-1.095 0.55 0 1.005 0.405 1.083 0.933l0.012 0.162v5.442l3.048 3.047c0.385 0.385 0.423 0.985 0.115 1.413l-0.115 0.136c-0.385 0.385-0.985 0.423-1.413 0.115l-0.136-0.115-3.422-3.426-0.055-0.069-0.050-0.074z"></path>
</symbol>
<symbol id="icon-sendingerror_svg" viewBox="0 0 32 32">
<title>sendingerror_svg</title>
<path d="M16.842 4.884c6.139 0 11.116 4.977 11.116 11.116s-4.977 11.116-11.116 11.116c-6.139 0-11.116-4.977-11.116-11.116s4.977-11.116 11.116-11.116zM16.842 19.789c-0.698 0-1.263 0.566-1.263 1.263s0.566 1.263 1.263 1.263c0.698 0 1.263-0.566 1.263-1.263s-0.566-1.263-1.263-1.263zM16.842 9.011c-0.605 0-1.095 0.49-1.095 1.095v6.737c0 0.605 0.49 1.095 1.095 1.095s1.095-0.49 1.095-1.095v-6.737c0-0.605-0.49-1.095-1.095-1.095z"></path>
</symbol>
<symbol id="icon-send2_svg" viewBox="0 0 32 32">
<title>send2_svg</title>
<path d="M8.584 16l-0.403-0.062c-1.184-0.183-2.134-1.075-2.39-2.245l-1.814-8.288c-0.113-0.516-0.051-1.055 0.177-1.531 0.565-1.185 1.984-1.687 3.169-1.122l23.277 11.103c0.491 0.234 0.888 0.63 1.122 1.122 0.565 1.185 0.063 2.603-1.122 3.169l-23.277 11.103c-0.477 0.227-1.016 0.29-1.532 0.177-1.282-0.281-2.094-1.548-1.814-2.83l1.814-8.288c0.256-1.17 1.206-2.062 2.39-2.245l0.403-0.062zM6.709 5.414l1.687 7.71c0.021 0.094 0.096 0.165 0.191 0.18l7.277 1.122c0.87 0.134 1.467 0.948 1.333 1.818-0.106 0.687-0.645 1.227-1.333 1.333l-7.277 1.122c-0.095 0.015-0.171 0.086-0.191 0.18l-1.687 7.709 22.194-10.587-22.194-10.586z"></path>
</symbol>
<symbol id="icon-search_svg" viewBox="0 0 32 32">
<title>search_svg</title>
<path d="M12.667 4c4.786 0 8.667 3.88 8.667 8.667 0 1.912-0.619 3.679-1.667 5.112l6.61 6.612c0.521 0.521 0.521 1.365 0 1.886-0.481 0.481-1.237 0.518-1.76 0.111l-0.126-0.111-6.612-6.61c-1.433 1.048-3.2 1.667-5.112 1.667-4.786 0-8.667-3.88-8.667-8.667s3.88-8.667 8.667-8.667zM12.667 6.667c-3.314 0-6 2.686-6 6s2.686 6 6 6c3.314 0 6-2.686 6-6s-2.686-6-6-6z"></path>
</symbol>
<symbol id="icon-savedmessages_svg" viewBox="0 0 32 32">
<title>savedmessages_svg</title>
<path d="M22.667 2.667c2.946 0 5.333 2.388 5.333 5.333v19.006c0 1.473-1.194 2.667-2.667 2.667-0.637 0-1.252-0.228-1.735-0.642l-7.598-6.512-7.598 6.512c-1.118 0.958-2.802 0.829-3.76-0.289-0.414-0.483-0.642-1.099-0.642-1.735v-19.006c0-2.946 2.388-5.333 5.333-5.333h13.333zM22.667 5.333h-13.333c-1.473 0-2.667 1.194-2.667 2.667v19.006l7.598-6.512c0.999-0.856 2.472-0.856 3.471 0l7.598 6.512v-19.006c0-1.473-1.194-2.667-2.667-2.667z"></path>
</symbol>
<symbol id="icon-reply_svg" viewBox="0 0 32 32">
<title>reply_svg</title>
<path d="M17.234 6.394c0-1.154-0.935-2.089-2.089-2.089-0.526 0-1.032 0.198-1.418 0.555l-10.395 9.606c-0.847 0.783-0.899 2.105-0.080 2.99l0.080 0.078 10.395 9.606c0.847 0.783 2.169 0.731 2.952-0.116 0.357-0.386 0.555-0.892 0.555-1.418v-3.706c4.778 0.246 8.010 1.848 9.826 4.755l0.189 0.314c0.451 0.783 1.451 1.051 2.234 0.6 0.499-0.288 0.81-0.817 0.819-1.394 0.139-9.847-4.175-15.326-12.64-15.976l-0.427-0.028v-3.777zM14.567 7.714v3.752c0 0.736 0.597 1.333 1.333 1.333 7.080 0 10.865 3.276 11.603 10.205-2.661-2.545-6.558-3.805-11.603-3.805-0.736 0-1.333 0.597-1.333 1.333v3.752l-8.966-8.285 8.966-8.286z"></path>
</symbol>
<symbol id="icon-recent_svg" viewBox="0 0 32 32">
<title>recent_svg</title>
<path d="M16 1.333c8.1 0 14.667 6.566 14.667 14.667s-6.566 14.667-14.667 14.667c-8.1 0-14.667-6.566-14.667-14.667s6.566-14.667 14.667-14.667zM16 4c-6.627 0-12 5.373-12 12s5.373 12 12 12c6.627 0 12-5.373 12-12s-5.373-12-12-12zM16 6.667c0.684 0 1.247 0.515 1.324 1.178l0.009 0.155v7.41l5.43 4.937c0.545 0.495 0.585 1.339 0.090 1.883-0.457 0.503-1.211 0.576-1.753 0.195l-0.131-0.105-5.43-4.937c-0.494-0.449-0.8-1.065-0.861-1.724l-0.012-0.249v-7.41c0-0.736 0.597-1.333 1.333-1.333z"></path>
</symbol>
<symbol id="icon-radioon_svg" viewBox="0 0 32 32">
<title>radioon_svg</title>
<path d="M16 9.333c-3.733 0-6.667 2.933-6.667 6.667s2.933 6.667 6.667 6.667c3.733 0 6.667-2.933 6.667-6.667s-2.933-6.667-6.667-6.667v0zM16 2.667c-7.333 0-13.333 6-13.333 13.333s6 13.333 13.333 13.333c7.333 0 13.333-6 13.333-13.333s-6-13.333-13.333-13.333v0zM16 26.667c-5.867 0-10.667-4.8-10.667-10.667s4.8-10.667 10.667-10.667c5.867 0 10.667 4.8 10.667 10.667s-4.8 10.667-10.667 10.667v0z"></path>
</symbol>
<symbol id="icon-radiooff_svg" viewBox="0 0 32 32">
<title>radiooff_svg</title>
<path d="M16 2.667c-7.333 0-13.333 6-13.333 13.333s6 13.333 13.333 13.333c7.333 0 13.333-6 13.333-13.333s-6-13.333-13.333-13.333v0zM16 26.667c-5.867 0-10.667-4.8-10.667-10.667s4.8-10.667 10.667-10.667c5.867 0 10.667 4.8 10.667 10.667s-4.8 10.667-10.667 10.667v0z"></path>
</symbol>
<symbol id="icon-play_svg" viewBox="0 0 32 32">
<title>play_svg</title>
<path d="M8.261 3.73l17.125 11.417c0.471 0.314 0.599 0.951 0.284 1.422-0.075 0.113-0.172 0.209-0.284 0.284l-17.125 11.417c-0.471 0.314-1.108 0.187-1.422-0.284-0.112-0.168-0.172-0.366-0.172-0.569v-22.834c0-0.566 0.459-1.026 1.026-1.026 0.202 0 0.4 0.060 0.569 0.172z"></path>
</symbol>
<symbol id="icon-pin_svg" viewBox="0 0 32 32">
<title>pin_svg</title>
<path d="M24.198 2.667l0.193 0.009c1.014 0.097 1.807 0.951 1.807 1.991 0 0.584-0.255 1.139-0.698 1.519l-2.887 2.475-0.565 6.219 3.963 4.459c0.734 0.826 0.659 2.090-0.166 2.824-0.366 0.325-0.839 0.505-1.329 0.505h-7.183l0.001 6.667c0 0.684-0.515 1.247-1.178 1.324l-0.155 0.009c-0.684 0-1.247-0.515-1.324-1.178l-0.009-0.155-0.001-6.667h-7.181c-1.105 0-2-0.895-2-2 0-0.49 0.18-0.963 0.505-1.329l3.963-4.459-0.565-6.219-2.887-2.475c-0.839-0.719-0.936-1.981-0.217-2.82 0.38-0.443 0.935-0.698 1.518-0.698h16.396zM22.396 5.333h-12.791l1.519 1.302c0.527 0.452 0.857 1.092 0.92 1.783l0.565 6.219c0.067 0.734-0.173 1.462-0.663 2.013l-2.977 3.349h14.062l-2.977-3.349c-0.489-0.551-0.729-1.279-0.663-2.013l0.565-6.219c0.063-0.692 0.393-1.331 0.92-1.783l1.519-1.302z"></path>
</symbol>
<symbol id="icon-pinnedchat_svg" viewBox="0 0 32 32">
<title>pinnedchat_svg</title>
<path d="M20.677 7.241c0.171 0.103 0.329 0.226 0.47 0.367l3.245 3.245c0.953 0.953 0.953 2.499 0 3.452-0.141 0.141-0.299 0.264-0.47 0.367l-2.552 1.531c0.34 2.027-0.485 4.026-2.371 5.912-0.432 0.432-1.133 0.432-1.565 0l-2.993-2.992-4.324 4.325c-0.396 0.396-1.018 0.429-1.452 0.099l-0.113-0.099c-0.396-0.396-0.429-1.018-0.099-1.452l0.099-0.113 4.325-4.326-2.992-2.991c-0.432-0.432-0.432-1.133 0-1.565 1.792-1.792 3.686-2.626 5.609-2.414l0.304 0.042 1.531-2.552c0.694-1.156 2.193-1.531 3.349-0.837zM19.226 9.217l-1.951 3.252c-0.267 0.445-0.807 0.645-1.299 0.48-1.197-0.399-2.406-0.135-3.699 0.878l5.896 5.896 0.193-0.258c0.853-1.197 1.058-2.325 0.686-3.442-0.164-0.492 0.036-1.032 0.48-1.299l3.275-1.967 0.021-0.018c0.089-0.089 0.089-0.233 0-0.322l-3.245-3.245-0.044-0.034c-0.108-0.065-0.248-0.030-0.313 0.078z"></path>
</symbol>
<symbol id="icon-photo_svg" viewBox="0 0 32 32">
<title>photo_svg</title>
<path d="M25.333 2.667c2.209 0 4 1.791 4 4v18.667c0 2.209-1.791 4-4 4h-18.667c-2.209 0-4-1.791-4-4v-18.667c0-2.209 1.791-4 4-4h18.667zM11.945 19.287l-0.083-0.060c-0.279-0.172-0.634-0.113-0.845 0.122l-0.072 0.096-4.438 7.212 0.079 0.007 10.008 0.002-4.516-7.225c-0.036-0.058-0.081-0.11-0.133-0.154v0zM20.877 16.257c-0.281-0.168-0.635-0.106-0.844 0.131l-0.071 0.097-3.228 5.376 3.003 4.805h5.596c0.721 0 1.309-0.573 1.333-1.289l-5.566-8.903c-0.056-0.089-0.132-0.164-0.222-0.218zM25.333 5.333h-18.667c-0.736 0-1.333 0.597-1.333 1.333v16.808l3.341-5.427c0.925-1.503 2.849-2.014 4.387-1.205l0.198 0.113c0.365 0.224 0.682 0.517 0.936 0.86l0.144 0.212 0.808 1.295 2.528-4.21c0.908-1.513 2.827-2.045 4.374-1.253l0.2 0.111c0.376 0.226 0.703 0.523 0.963 0.874l0.148 0.217 3.306 5.29v-13.685c0-0.736-0.597-1.333-1.333-1.333z"></path>
</symbol>
<symbol id="icon-phone_svg" viewBox="0 0 32 32">
<title>phone_svg</title>
<path d="M9.648 16.755l3.141-3.487c0.752-0.749 1.14-1.865 1.011-2.992l-0.344-2.993c-0.223-1.876-1.802-3.283-3.688-3.283h-2.054c-2.112 0-3.837 1.765-3.706 3.874 0.671 10.809 9.313 19.448 20.119 20.119 2.109 0.131 3.875-1.594 3.875-3.706v-2.055c0.018-1.868-1.393-3.453-3.266-3.675l-3.023-0.345c-1.126-0.129-2.242 0.259-3.042 1.059l-3.424 3.081c-2.078-1.346-3.874-3.089-5.28-5.123l-0.318-0.474zM17.727 23.706l2.778-2.502c0.274-0.272 0.584-0.38 0.903-0.343l3.017 0.345c0.523 0.062 0.913 0.5 0.908 1.014l-0 2.068c0 0.598-0.492 1.078-1.043 1.044-2.328-0.145-4.541-0.712-6.564-1.625zM8.294 14.274c-0.914-2.023-1.481-4.237-1.625-6.565-0.034-0.55 0.447-1.042 1.044-1.042h2.054c0.533 0 0.976 0.395 1.039 0.926l0.344 2.988c0.037 0.319-0.071 0.629-0.295 0.852l-2.561 2.841z"></path>
</symbol>
<symbol id="icon-permissions_svg" viewBox="0 0 32 32">
<title>permissions_svg</title>
<path d="M8 4h18.667c2.13 0 3.872 1.665 3.993 3.765l0.007 0.235v2.667c0 0.684-0.515 1.247-1.178 1.324l-0.155 0.009h-4v12c0 2.13-1.665 3.872-3.765 3.993l-0.235 0.007h-16c-2.209 0-4-1.791-4-4v-2.667c0-0.736 0.597-1.333 1.333-1.333h1.333v-12c0-2.13 1.665-3.872 3.765-3.993l0.235-0.007zM17.333 22.667h-13.333v1.333c0 0.736 0.597 1.333 1.333 1.333h12.228c-0.148-0.418-0.228-0.867-0.228-1.333v-1.333zM22.894 6.667h-14.894c-0.684 0-1.247 0.515-1.324 1.178l-0.009 0.155v12h12c0.736 0 1.333 0.597 1.333 1.333v2.667c0 0.699 0.541 1.279 1.183 1.327l0.168 0.006c0.676-0.009 1.231-0.521 1.307-1.179l0.009-0.154v-16c0-0.374 0.051-0.736 0.147-1.079l0.080-0.254zM26.667 6.667l-0.155 0.009c-0.612 0.071-1.098 0.557-1.169 1.169l-0.009 0.155v1.333h2.667v-1.333c0-0.684-0.515-1.247-1.178-1.324l-0.155-0.009z"></path>
</symbol>
<symbol id="icon-pause_svg" viewBox="0 0 32 32">
<title>pause_svg</title>
<path d="M12 5.333c0.736 0 1.333 0.597 1.333 1.333v18.667c0 0.736-0.597 1.333-1.333 1.333h-4c-0.736 0-1.333-0.597-1.333-1.333v-18.667c0-0.736 0.597-1.333 1.333-1.333h4zM24 5.333c0.736 0 1.333 0.597 1.333 1.333v18.667c0 0.736-0.597 1.333-1.333 1.333h-4c-0.736 0-1.333-0.597-1.333-1.333v-18.667c0-0.736 0.597-1.333 1.333-1.333h4z"></path>
</symbol>
<symbol id="icon-next_svg" viewBox="0 0 32 32">
<title>next_svg</title>
<path d="M26.276 15.057l-9.333-9.333c-0.521-0.521-1.365-0.521-1.886 0-0.481 0.481-0.518 1.237-0.111 1.76l0.111 0.126 7.057 7.057h-15.448c-0.684 0-1.247 0.515-1.324 1.178l-0.009 0.155c0 0.684 0.515 1.247 1.178 1.324l0.155 0.009h15.448l-7.057 7.057c-0.481 0.481-0.518 1.237-0.111 1.76l0.111 0.126c0.481 0.481 1.237 0.518 1.76 0.111l0.126-0.111 9.333-9.333c0.481-0.481 0.518-1.237 0.111-1.76l-0.111-0.126z"></path>
</symbol>
<symbol id="icon-newprivate_svg" viewBox="0 0 32 32">
<title>newprivate_svg</title>
<path d="M16 16c5.21 0 8.954 1.382 11.114 4.238 0.575 0.761 0.886 1.688 0.886 2.642v1.5c0 1.999-1.62 3.619-3.619 3.619h-16.762c-1.999 0-3.619-1.62-3.619-3.619v-1.5c0-0.954 0.311-1.881 0.886-2.642 2.16-2.857 5.904-4.239 11.114-4.239zM16 18.667c-4.451 0-7.407 1.091-8.986 3.18-0.225 0.298-0.347 0.661-0.347 1.034v1.5c0 0.526 0.426 0.952 0.952 0.952h16.762c0.526 0 0.952-0.426 0.952-0.952v-1.5c0-0.373-0.122-0.736-0.347-1.034-1.58-2.089-4.535-3.18-8.986-3.18zM16 2.667c2.946 0 5.333 2.388 5.333 5.333s-2.388 5.333-5.333 5.333c-2.946 0-5.333-2.388-5.333-5.333s2.388-5.333 5.333-5.333zM16 5.333c-1.473 0-2.667 1.194-2.667 2.667s1.194 2.667 2.667 2.667c1.473 0 2.667-1.194 2.667-2.667s-1.194-2.667-2.667-2.667z"></path>
</symbol>
<symbol id="icon-newgroup_svg" viewBox="0 0 32 32">
<title>newgroup_svg</title>
<path d="M10.667 17.333c4.431 0 7.671 1.112 9.63 3.427 0.669 0.791 1.037 1.794 1.037 2.83v1.077c0 1.841-1.492 3.333-3.333 3.333h-14.667c-1.841 0-3.333-1.492-3.333-3.333v-1.077c0-1.036 0.367-2.039 1.037-2.83 1.959-2.315 5.199-3.427 9.63-3.427zM23.935 18.711l0.156 0.002c2.871 0.194 5.084 1.004 6.593 2.481 0.771 0.755 1.234 1.766 1.306 2.837l0.010 0.293v0.675c0 1.588-1.234 2.888-2.795 2.993l-0.205 0.007h-3.667c-0.736 0-1.333-0.597-1.333-1.333 0-0.684 0.515-1.247 1.178-1.324l0.155-0.009h3.667c0.158 0 0.29-0.11 0.325-0.257l0.009-0.076v-0.675c0-0.461-0.186-0.902-0.515-1.225-1-0.979-2.62-1.572-4.907-1.726-0.735-0.050-1.29-0.686-1.24-1.42 0.046-0.682 0.598-1.21 1.264-1.242v0zM10.667 20c-3.718 0-6.22 0.858-7.594 2.483-0.262 0.31-0.406 0.702-0.406 1.107v1.077c0 0.368 0.298 0.667 0.667 0.667h14.667c0.368 0 0.667-0.298 0.667-0.667v-1.077c0-0.405-0.144-0.798-0.406-1.107-1.375-1.624-3.876-2.483-7.594-2.483zM22.667 6.667c2.577 0 4.667 2.089 4.667 4.667s-2.089 4.667-4.667 4.667c-2.577 0-4.667-2.089-4.667-4.667s2.089-4.667 4.667-4.667zM10.667 4c2.946 0 5.333 2.388 5.333 5.333s-2.388 5.333-5.333 5.333c-2.946 0-5.333-2.388-5.333-5.333s2.388-5.333 5.333-5.333zM22.667 9.333c-1.105 0-2 0.895-2 2s0.895 2 2 2c1.105 0 2-0.895 2-2s-0.895-2-2-2zM10.667 6.667c-1.473 0-2.667 1.194-2.667 2.667s1.194 2.667 2.667 2.667c1.473 0 2.667-1.194 2.667-2.667s-1.194-2.667-2.667-2.667z"></path>
</symbol>
<symbol id="icon-newchat_filled_svg" viewBox="0 0 32 32">
<title>newchat_filled_svg</title>
<path d="M4 23.28v4.053c0 0.373 0.293 0.667 0.667 0.667h4.053c0.173 0 0.347-0.067 0.467-0.2l14.088-14.075c0.232-0.231 0.258-0.59 0.078-0.85l-0.078-0.092-4.057-4.057c-0.26-0.26-0.682-0.26-0.943 0l-14.075 14.075c-0.133 0.133-0.2 0.293-0.2 0.48zM27.613 9.387c0.52-0.52 0.52-1.36 0-1.88l-3.12-3.12c-0.52-0.52-1.36-0.52-1.88 0l-1.969 1.969c-0.26 0.26-0.26 0.682 0 0.943l4.057 4.057c0.26 0.26 0.682 0.26 0.943 0l1.969-1.969z"></path>
</symbol>
<symbol id="icon-newchannel_svg" viewBox="0 0 32 32">
<title>newchannel_svg</title>
<path d="M24.667 2.238c1.841 0 3.333 1.492 3.333 3.333v20.857c0 0.773-0.269 1.522-0.76 2.119-1.17 1.421-3.271 1.624-4.692 0.454l-6.548-5.393v2.391c0 2.13-1.665 3.872-3.765 3.993l-0.235 0.007c-2.13 0-3.872-1.665-3.993-3.765l-0.007-0.235-0-3.467c-3.043-0.618-5.333-3.308-5.333-6.533 0-3.682 2.985-6.667 6.667-6.667h5.522l7.693-6.335c0.597-0.491 1.346-0.76 2.119-0.76zM10.667 22.666v3.334c0 0.736 0.597 1.333 1.333 1.333 0.684 0 1.247-0.515 1.324-1.178l0.009-0.155v-3.334h-2.667zM24.667 4.905c-0.155 0-0.304 0.054-0.424 0.152l-7.693 6.335c-0.477 0.393-1.077 0.608-1.695 0.608h-5.522c-2.209 0-4 1.791-4 4s1.791 4 4 4h5.522c0.619 0 1.218 0.215 1.695 0.608l7.693 6.335c0.284 0.234 0.704 0.193 0.938-0.091 0.098-0.119 0.152-0.269 0.152-0.424v-20.857c0-0.368-0.298-0.667-0.667-0.667z"></path>
</symbol>
<symbol id="icon-mute_svg" viewBox="0 0 32 32">
<title>mute_svg</title>
<path d="M14.667 26.667h2.667c0.736 0 1.333 0.597 1.333 1.333 0 0.684-0.515 1.247-1.178 1.324l-0.155 0.009h-2.667c-0.736 0-1.333-0.597-1.333-1.333 0-0.684 0.515-1.247 1.178-1.324l0.155-0.009zM4.405 3.043c0.488-0.473 1.245-0.499 1.761-0.085l0.124 0.113 22 22.667c0.513 0.528 0.5 1.373-0.028 1.885-0.488 0.473-1.245 0.499-1.761 0.085l-0.124-0.113-2.206-2.273-0.171 0.011h-18.667c-1.014 0-1.639-1.077-1.186-1.944l0.076-0.128 2.443-3.664v-7.596c0-1.348 0.287-2.657 0.831-3.856l-3.122-3.216c-0.513-0.528-0.5-1.373 0.028-1.885zM9.344 11.615l-0.011 0.385v7.596c0 0.451-0.114 0.894-0.331 1.287l-0.117 0.192-1.061 1.591h13.769l-12.034-12.396c-0.117 0.436-0.189 0.886-0.215 1.344zM16 2.667c5.047 0 9.159 4.006 9.328 9.012l0.005 0.321v4c0 0.736-0.597 1.333-1.333 1.333-0.684 0-1.247-0.515-1.324-1.178l-0.009-0.155v-4c0-3.682-2.985-6.667-6.667-6.667-0.813 0-1.604 0.145-2.347 0.424-0.689 0.259-1.458-0.089-1.717-0.779s0.089-1.458 0.778-1.717c1.042-0.392 2.151-0.595 3.286-0.595z"></path>
</symbol>
<symbol id="icon-more_svg" viewBox="0 0 32 32">
<title>more_svg</title>
<path d="M16 21.333c1.473 0 2.667 1.194 2.667 2.667s-1.194 2.667-2.667 2.667c-1.473 0-2.667-1.194-2.667-2.667s1.194-2.667 2.667-2.667zM16 13.333c1.473 0 2.667 1.194 2.667 2.667s-1.194 2.667-2.667 2.667c-1.473 0-2.667-1.194-2.667-2.667s1.194-2.667 2.667-2.667zM16 5.333c1.473 0 2.667 1.194 2.667 2.667s-1.194 2.667-2.667 2.667c-1.473 0-2.667-1.194-2.667-2.667s1.194-2.667 2.667-2.667z"></path>
</symbol>
<symbol id="icon-microphone_svg" viewBox="0 0 32 32">
<title>microphone_svg</title>
<path d="M25.333 13.333c0.736 0 1.333 0.597 1.333 1.333 0 5.439-4.071 9.927-9.332 10.584l-0.001 4.083c0 0.736-0.597 1.333-1.333 1.333-0.684 0-1.247-0.515-1.324-1.178l-0.009-0.155 0-4.083c-5.262-0.656-9.333-5.145-9.333-10.584 0-0.736 0.597-1.333 1.333-1.333s1.333 0.597 1.333 1.333c0 4.418 3.582 8 8 8s8-3.582 8-8c0-0.736 0.597-1.333 1.333-1.333zM16 2.667c2.946 0 5.333 2.388 5.333 5.333v6.667c0 2.946-2.388 5.333-5.333 5.333s-5.333-2.388-5.333-5.333v-6.667c0-2.946 2.388-5.333 5.333-5.333z"></path>
</symbol>
<symbol id="icon-message_svg" viewBox="0 0 32 32">
<title>message_svg</title>
<path d="M9.886 25.333l-4.715 4.715c-0.573 0.573-1.501 0.573-2.074 0-0.275-0.275-0.43-0.648-0.43-1.037v-21.011c0-2.946 2.388-5.333 5.333-5.333h16c2.946 0 5.333 2.388 5.333 5.333v12c0 2.946-2.388 5.333-5.333 5.333h-14.114zM5.333 26.114l2.94-2.94c0.325-0.325 0.766-0.508 1.226-0.508h14.501c1.473 0 2.667-1.194 2.667-2.667v-12c0-1.473-1.194-2.667-2.667-2.667h-16c-1.473 0-2.667 1.194-2.667 2.667v18.114z"></path>
</symbol>
<symbol id="icon-menu_svg" viewBox="0 0 32 32">
<title>menu_svg</title>
<path d="M5.333 21.333h21.333c0.736 0 1.333 0.597 1.333 1.333 0 0.684-0.515 1.247-1.178 1.324l-0.155 0.009h-21.333c-0.736 0-1.333-0.597-1.333-1.333 0-0.684 0.515-1.247 1.178-1.324l0.155-0.009zM5.333 14.667h21.333c0.736 0 1.333 0.597 1.333 1.333 0 0.684-0.515 1.247-1.178 1.324l-0.155 0.009h-21.333c-0.736 0-1.333-0.597-1.333-1.333 0-0.684 0.515-1.247 1.178-1.324l0.155-0.009zM5.333 8h21.333c0.736 0 1.333 0.597 1.333 1.333 0 0.684-0.515 1.247-1.178 1.324l-0.155 0.009h-21.333c-0.736 0-1.333-0.597-1.333-1.333 0-0.684 0.515-1.247 1.178-1.324l0.155-0.009z"></path>
</symbol>
<symbol id="icon-logout_svg" viewBox="0 0 32 32">
<title>logout_svg</title>
<path d="M8 2.667h6.667c2.946 0 5.333 2.388 5.333 5.333 0 0.736-0.597 1.333-1.333 1.333-0.684 0-1.247-0.515-1.324-1.178l-0.016-0.354c-0.097-1.311-1.141-2.358-2.45-2.46l-0.209-0.008h-6.667c-1.406 0-2.558 1.088-2.659 2.468l-0.007 0.199v16c0 1.406 1.088 2.558 2.468 2.659l0.199 0.007h6.667c1.406 0 2.558-1.088 2.659-2.468l0.016-0.355c0.077-0.663 0.641-1.178 1.324-1.178 0.736 0 1.333 0.597 1.333 1.333 0 2.856-2.245 5.188-5.067 5.327l-0.266 0.007h-6.667c-2.856 0-5.188-2.245-5.327-5.067l-0.007-0.266v-16c0-2.856 2.245-5.188 5.067-5.327l0.266-0.007zM24.943 9.724l5.333 5.333c0.047 0.047 0.090 0.097 0.129 0.149l0.096 0.148 0.071 0.15 0.047 0.14 0.033 0.157 0.012 0.119v0.158l-0.007 0.078-0.027 0.155-0.043 0.144-0.045 0.109-0.070 0.13-0.098 0.14-0.098 0.109-5.333 5.333c-0.521 0.521-1.365 0.521-1.886 0s-0.521-1.365 0-1.886l3.056-3.057h-8.78c-0.684 0-1.247-0.515-1.324-1.178l-0.009-0.155c0-0.684 0.515-1.247 1.178-1.324l0.155-0.009h8.78l-3.056-3.057c-0.521-0.521-0.521-1.365 0-1.886s1.365-0.521 1.886 0z"></path>
</symbol>
<symbol id="icon-lock_svg" viewBox="0 0 32 32">
<title>lock_svg</title>
<path d="M16 1.333c3.585 0 6.509 2.83 6.66 6.377l0.006 0.289v2.667c2.209 0 4 1.791 4 4v10.667c0 2.209-1.791 4-4 4h-13.333c-2.209 0-4-1.791-4-4v-10.667c0-2.209 1.791-4 4-4v-2.667c0-3.682 2.985-6.667 6.667-6.667zM22.667 13.333h-13.333c-0.736 0-1.333 0.597-1.333 1.333v10.667c0 0.736 0.597 1.333 1.333 1.333h13.333c0.736 0 1.333-0.597 1.333-1.333v-10.667c0-0.736-0.597-1.333-1.333-1.333zM16 18c1.105 0 2 0.895 2 2s-0.895 2-2 2c-1.105 0-2-0.895-2-2s0.895-2 2-2zM16.235 4.007l-0.235-0.007c-2.13 0-3.872 1.665-3.993 3.765l-0.007 0.235v2.667h8v-2.667c0-2.13-1.665-3.872-3.765-3.993v0z"></path>
</symbol>
<symbol id="icon-location_svg" viewBox="0 0 32 32">
<title>location_svg</title>
<path d="M16 1.333c5.896 0 10.667 4.77 10.667 10.667 0 4.885-3.619 10.955-8.616 17-1.066 1.28-3.022 1.28-4.090-0.001-4.971-5.982-8.628-12.108-8.628-16.999 0-5.896 4.77-10.667 10.667-10.667zM16 4c-4.424 0-8 3.576-8 8 0 3.907 3.261 9.482 7.623 14.822l0.383 0.464 0.382-0.465c4.382-5.392 7.611-10.919 7.611-14.822 0-4.424-3.576-8-8-8zM16 9.333c1.473 0 2.667 1.194 2.667 2.667s-1.194 2.667-2.667 2.667c-1.473 0-2.667-1.194-2.667-2.667s1.194-2.667 2.667-2.667z"></path>
</symbol>
<symbol id="icon-largeplay_svg" viewBox="0 0 32 32">
<title>largeplay_svg</title>
<path d="M10.262 5.337l15.258 9.918c0.412 0.268 0.528 0.818 0.261 1.23-0.068 0.104-0.157 0.193-0.261 0.261l-15.258 9.918c-0.412 0.268-0.962 0.151-1.23-0.261-0.094-0.144-0.144-0.312-0.144-0.484v-19.835c0-0.491 0.398-0.889 0.889-0.889 0.172 0 0.34 0.050 0.484 0.144z"></path>
</symbol>
<symbol id="icon-largepause_svg" viewBox="0 0 32 32">
<title>largepause_svg</title>
<path d="M12.444 6.222c0.491 0 0.889 0.398 0.889 0.889v17.778c0 0.491-0.398 0.889-0.889 0.889h-4.444c-0.491 0-0.889-0.398-0.889-0.889v-17.778c0-0.491 0.398-0.889 0.889-0.889h4.444zM24 6.222c0.491 0 0.889 0.398 0.889 0.889v17.778c0 0.491-0.398 0.889-0.889 0.889h-4.444c-0.491 0-0.889-0.398-0.889-0.889v-17.778c0-0.491 0.398-0.889 0.889-0.889h4.444z"></path>
</symbol>
<symbol id="icon-language_svg" viewBox="0 0 32 32">
<title>language_svg</title>
<path d="M16.547 19.487l-2.773-2.741 0.040-0.040c2.32-2.587 3.973-5.56 4.947-8.707h2.573c0.736 0 1.333-0.597 1.333-1.333s-0.597-1.333-1.333-1.333h-8v-1.333c0-0.736-0.597-1.333-1.333-1.333s-1.333 0.597-1.333 1.333v1.333h-8.007c-0.733 0-1.327 0.594-1.327 1.327s0.594 1.327 1.327 1.327h13.567c-0.893 2.573-2.307 5.013-4.227 7.147-0.946-1.048-1.768-2.174-2.466-3.354l-0.242-0.425c-0.235-0.424-0.682-0.688-1.167-0.688h-0.539c-0.461 0-0.835 0.374-0.835 0.835 0 0.132 0.031 0.263 0.092 0.38l0.122 0.233c0.879 1.639 1.97 3.195 3.262 4.632l-5.833 5.753c-0.483 0.476-0.525 1.23-0.123 1.754l0.12 0.136c0.521 0.521 1.365 0.521 1.886 0l5.724-5.724 3.12 3.12c0.364 0.364 0.954 0.364 1.318 0 0.095-0.095 0.168-0.208 0.214-0.334l0.206-0.552c0.183-0.492 0.061-1.045-0.312-1.414zM23.743 13.333h-0.819c-0.556 0-1.053 0.345-1.248 0.865l-5.207 13.886c-0.179 0.478 0.063 1.010 0.541 1.19 0.104 0.039 0.214 0.059 0.324 0.059h0.408c0.556 0 1.054-0.346 1.249-0.867l1.17-3.133h6.333l1.181 3.137c0.196 0.519 0.693 0.863 1.248 0.863h0.411c0.51 0 0.924-0.414 0.924-0.924 0-0.111-0.020-0.221-0.059-0.324l-5.207-13.886c-0.195-0.52-0.693-0.865-1.248-0.865zM23.333 16.893l2.16 5.773h-4.32l2.16-5.773z"></path>
</symbol>
<symbol id="icon-lamp_svg" viewBox="0 0 32 32">
<title>lamp_svg</title>
<path d="M16 1.333c6.627 0 12 5.373 12 12 0 4.183-2.279 7.583-6.667 10.119v3.214c0 2.209-1.791 4-4 4h-2.667c-2.209 0-4-1.791-4-4v-3.214l-0.405-0.24c-4.122-2.507-6.262-5.824-6.262-9.879 0-6.627 5.373-12 12-12zM13.333 26.667c0 0.736 0.597 1.333 1.333 1.333h2.667c0.736 0 1.333-0.597 1.333-1.333h-5.333zM16 4c-5.155 0-9.333 4.179-9.333 9.333 0 3.328 1.919 6.015 5.958 8.155 0.436 0.231 0.709 0.684 0.709 1.178v1.333h5.333v-1.333c0-0.493 0.273-0.947 0.708-1.178 4.039-2.143 5.958-4.83 5.958-8.155 0-5.155-4.179-9.333-9.333-9.333zM16 14.458l3.246-2.224c0.607-0.416 1.437-0.261 1.854 0.346 0.384 0.561 0.282 1.311-0.214 1.75l-0.132 0.103-3.42 2.343v3.224c0 0.684-0.515 1.247-1.178 1.324l-0.155 0.009c-0.684 0-1.247-0.515-1.324-1.178l-0.009-0.155v-3.223l-3.42-2.344c-0.561-0.384-0.736-1.121-0.432-1.71l0.086-0.144c0.384-0.561 1.121-0.736 1.71-0.432l0.144 0.086 3.246 2.224z"></path>
</symbol>
<symbol id="icon-info_svg" viewBox="0 0 32 32">
<title>info_svg</title>
<path d="M16 1.333c8.1 0 14.667 6.566 14.667 14.667s-6.566 14.667-14.667 14.667c-8.1 0-14.667-6.566-14.667-14.667s6.566-14.667 14.667-14.667zM16 4c-6.627 0-12 5.373-12 12s5.373 12 12 12c6.627 0 12-5.373 12-12s-5.373-12-12-12zM16 14.667c0.684 0 1.247 0.515 1.324 1.178l0.009 0.155v6.667c0 0.736-0.597 1.333-1.333 1.333-0.684 0-1.247-0.515-1.324-1.178l-0.009-0.155v-6.667c0-0.736 0.597-1.333 1.333-1.333zM16 8.667c1.105 0 2 0.895 2 2s-0.895 2-2 2c-1.105 0-2-0.895-2-2s0.895-2 2-2z"></path>
</symbol>
<symbol id="icon-help_svg" viewBox="0 0 32 32">
<title>help_svg</title>
<path d="M16 1.333c8.1 0 14.667 6.566 14.667 14.667s-6.566 14.667-14.667 14.667c-8.1 0-14.667-6.566-14.667-14.667s6.566-14.667 14.667-14.667zM16 4c-6.627 0-12 5.373-12 12s5.373 12 12 12c6.627 0 12-5.373 12-12s-5.373-12-12-12zM15.971 20.392c0.899 0 1.627 0.691 1.627 1.572 0 0.867-0.742 1.572-1.627 1.572-0.88 0-1.627-0.714-1.627-1.572 0-0.872 0.733-1.572 1.627-1.572zM16.441 9.2c2.599 0 4.519 1.425 4.519 3.675 0 1.353-0.575 2.209-1.898 3.147l-0.667 0.454c-0.833 0.584-1.143 1.017-1.143 1.642v0.166c0 0.653-0.503 1.116-1.254 1.116-0.789 0-1.226-0.429-1.226-1.226v-0.18c0-1.251 0.544-2.028 1.787-2.89l0.457-0.321c0.999-0.72 1.284-1.111 1.284-1.797 0-0.987-0.767-1.637-1.956-1.637-0.84 0-1.478 0.393-1.947 1.171l-0.36 0.456-0.113 0.131c-0.264 0.282-0.533 0.4-0.983 0.4-0.58 0-1.074-0.451-1.074-1.088 0-0.235 0.038-0.465 0.116-0.731 0.441-1.45 2.182-2.488 4.458-2.488z"></path>
</symbol>
<symbol id="icon-group_svg" viewBox="0 0 32 32">
<title>group_svg</title>
<path d="M10.667 17.333c4.431 0 7.671 1.112 9.63 3.427 0.669 0.791 1.037 1.794 1.037 2.83v1.077c0 1.841-1.492 3.333-3.333 3.333h-14.667c-1.841 0-3.333-1.492-3.333-3.333v-1.077c0-1.036 0.367-2.039 1.037-2.83 1.959-2.315 5.199-3.427 9.63-3.427zM23.935 18.711l0.156 0.002c2.871 0.194 5.084 1.004 6.593 2.481 0.771 0.755 1.234 1.766 1.306 2.837l0.010 0.293v0.675c0 1.588-1.234 2.888-2.795 2.993l-0.205 0.007h-3.667c-0.736 0-1.333-0.597-1.333-1.333 0-0.684 0.515-1.247 1.178-1.324l0.155-0.009h3.667c0.158 0 0.29-0.11 0.325-0.257l0.009-0.076v-0.675c0-0.461-0.186-0.902-0.515-1.225-1-0.979-2.62-1.572-4.907-1.726-0.735-0.050-1.29-0.686-1.24-1.42 0.046-0.682 0.598-1.21 1.264-1.242v0zM10.667 20c-3.718 0-6.22 0.858-7.594 2.483-0.262 0.31-0.406 0.702-0.406 1.107v1.077c0 0.368 0.298 0.667 0.667 0.667h14.667c0.368 0 0.667-0.298 0.667-0.667v-1.077c0-0.405-0.144-0.798-0.406-1.107-1.375-1.625-3.876-2.483-7.594-2.483zM22.667 6.667c2.577 0 4.667 2.089 4.667 4.667s-2.089 4.667-4.667 4.667c-2.577 0-4.667-2.089-4.667-4.667s2.089-4.667 4.667-4.667zM10.667 4c2.946 0 5.333 2.388 5.333 5.333s-2.388 5.333-5.333 5.333c-2.946 0-5.333-2.388-5.333-5.333s2.388-5.333 5.333-5.333zM22.667 9.333c-1.105 0-2 0.895-2 2s0.895 2 2 2c1.105 0 2-0.895 2-2s-0.895-2-2-2zM10.667 6.667c-1.473 0-2.667 1.194-2.667 2.667s1.194 2.667 2.667 2.667c1.473 0 2.667-1.194 2.667-2.667s-1.194-2.667-2.667-2.667z"></path>
</symbol>
<symbol id="icon-FullScreen_svg" viewBox="0 0 32 32">
<title>FullScreen_svg</title>
<path d="M6.667 18.667c0.736 0 1.333 0.597 1.333 1.333v4h4c0.736 0 1.333 0.597 1.333 1.333s-0.597 1.333-1.333 1.333h-5.333c-0.736 0-1.333-0.597-1.333-1.333v-5.333c0-0.736 0.597-1.333 1.333-1.333zM25.333 18.667c0.684 0 1.247 0.515 1.324 1.178l0.009 0.155v5.333c0 0.684-0.515 1.247-1.178 1.324l-0.155 0.009h-5.333c-0.736 0-1.333-0.597-1.333-1.333 0-0.684 0.515-1.247 1.178-1.324l0.155-0.009h4v-4c0-0.736 0.597-1.333 1.333-1.333zM6.667 5.333h5.333c0.736 0 1.333 0.597 1.333 1.333 0 0.684-0.515 1.247-1.178 1.324l-0.155 0.009h-4v4c0 0.736-0.597 1.333-1.333 1.333-0.684 0-1.247-0.515-1.324-1.178l-0.009-0.155v-5.333c0-0.684 0.515-1.247 1.178-1.324l0.155-0.009zM25.333 5.333c0.736 0 1.333 0.597 1.333 1.333v5.333c0 0.736-0.597 1.333-1.333 1.333s-1.333-0.597-1.333-1.333v-4h-4c-0.736 0-1.333-0.597-1.333-1.333s0.597-1.333 1.333-1.333h5.333z"></path>
</symbol>
<symbol id="icon-forward_svg" viewBox="0 0 32 32">
<title>forward_svg</title>
<path d="M15.737 6.394c0-1.154 0.935-2.089 2.089-2.089 0.526 0 1.032 0.198 1.418 0.555l10.395 9.606c0.847 0.783 0.899 2.105 0.080 2.99l-0.080 0.078-10.395 9.606c-0.847 0.783-2.169 0.731-2.952-0.116-0.357-0.386-0.555-0.892-0.555-1.418v-3.706c-4.778 0.246-8.010 1.848-9.826 4.755l-0.189 0.314c-0.451 0.783-1.451 1.051-2.234 0.6-0.499-0.288-0.81-0.817-0.819-1.394-0.139-9.847 4.175-15.326 12.64-15.976l0.427-0.028v-3.777zM18.403 7.714v3.752c0 0.736-0.597 1.333-1.333 1.333-7.080 0-10.865 3.276-11.603 10.205 2.661-2.545 6.558-3.805 11.603-3.805 0.736 0 1.333 0.597 1.333 1.333v3.752l8.966-8.285-8.966-8.286z"></path>
</symbol>
<symbol id="icon-flag_svg" viewBox="0 0 32 32">
<title>flag_svg</title>
<path d="M15.638 3.98l0.698 0.382c2.526 1.313 5.505 1.467 8.16 0.406l1.675-0.669c0.876-0.35 1.828 0.295 1.828 1.238v13.376c0 0.548-0.335 1.040-0.846 1.241l-1.674 0.658c-3.396 1.335-7.198 1.127-10.421-0.555l-0.717-0.388c-2.398-1.226-5.233-1.276-7.676-0.129l0 9.794c0 0.736-0.597 1.333-1.333 1.333-0.684 0-1.247-0.515-1.324-1.178l-0.009-0.155v-24c0-0.113 0.014-0.223 0.041-0.328l0.052-0.157c0.125-0.327 0.381-0.594 0.704-0.736l0.467-0.231c3.28-1.642 7.142-1.598 10.375 0.099zM6.668 6.164l-0.001 10.502 0.402-0.13c2.823-0.856 5.893-0.588 8.546 0.788l0.718 0.389c2.531 1.306 5.509 1.463 8.172 0.417l0.829-0.326v-10.5l-0.405 0.148c-3.253 1.123-6.829 0.852-9.878-0.753l-0.702-0.384c-2.395-1.237-5.233-1.296-7.68-0.151z"></path>
</symbol>
<symbol id="icon-eye2_svg" viewBox="0 0 32 32">
<title>eye2_svg</title>
<path d="M4.33 5.789c0.448-0.512 1.2-0.599 1.749-0.228l0.133 0.102 21.333 18.667c0.554 0.485 0.61 1.327 0.125 1.881-0.448 0.512-1.2 0.599-1.749 0.228l-0.133-0.102-3.551-3.107c-1.821 0.863-3.926 1.437-6.232 1.437-7.767 0-13.338-6.612-13.338-8.667 0-1.153 1.769-3.743 4.687-5.793l-2.899-2.537c-0.554-0.485-0.61-1.327-0.125-1.881zM10.667 16c0 2.946 2.388 5.333 5.333 5.333 1.116 0 2.152-0.343 3.008-0.929l-2.766-2.419c-0.079 0.010-0.16 0.015-0.242 0.015-1.097 0-1.988-0.883-2-1.977l-2.766-2.42c-0.363 0.721-0.568 1.535-0.568 2.397zM16.005 7.333c7.796 0 13.328 6.612 13.328 8.667 0 0.848-0.937 2.472-2.588 4.087l-5.456-4.775c-0.326-2.533-2.43-4.51-5.020-4.639l-0.291-0.007-3.333-2.916c1.063-0.266 2.187-0.418 3.359-0.418z"></path>
</symbol>
<symbol id="icon-eye1_svg" viewBox="0 0 32 32">
<title>eye1_svg</title>
<path d="M16.005 7.333c7.796 0 13.328 6.612 13.328 8.667s-5.502 8.667-13.328 8.667c-7.767 0-13.338-6.612-13.338-8.667s5.611-8.667 13.338-8.667zM16 10.667c-2.946 0-5.333 2.388-5.333 5.333s2.388 5.333 5.333 5.333c2.946 0 5.333-2.388 5.333-5.333s-2.388-5.333-5.333-5.333zM16 14c1.105 0 2 0.895 2 2s-0.895 2-2 2c-1.105 0-2-0.895-2-2s0.895-2 2-2z"></path>
</symbol>
<symbol id="icon-edit_svg" viewBox="0 0 32 32">
<title>edit_svg</title>
<path d="M10.276 27.609c-0.25 0.25-0.589 0.391-0.943 0.391h-4c-0.736 0-1.333-0.597-1.333-1.333v-4c0-0.354 0.14-0.693 0.391-0.943l17.724-17.724c0.987-0.987 2.554-1.038 3.602-0.156l0.17 0.156 2.114 2.114c0.987 0.987 1.038 2.554 0.156 3.602l-0.156 0.17-17.724 17.724zM6.667 23.219v2.114h2.114l13.333-13.333-2.114-2.114-13.333 13.333zM24 5.886l-2.115 2.113 2.115 2.115 2.114-2.114-2.114-2.114z"></path>
</symbol>
<symbol id="icon-eats_svg" viewBox="0 0 32 32">
<title>eats_svg</title>
<path d="M10.901 1.912c0.417-0.607 1.247-0.761 1.854-0.344 1.045 0.718 2.036 1.708 2.978 2.965 0.292 0.39 0.546 0.758 0.76 1.109 0.236-0.388 0.545-0.811 0.926-1.268 1.276-1.531 3.054-2.42 5.333-2.667-0.276 1.52-0.81 2.804-1.602 3.854l0.201-0.027c1.893-0.198 3.517 0.152 4.83 1.218l0.512 0.441c6.897 6.134 3.941 20.445-4.938 23.405l-0.133 0.037c-1.375 0.305-2.284 0.245-3.411-0.115l-0.786-0.272c-0.551-0.184-0.9-0.248-1.425-0.248s-0.873 0.064-1.424 0.249l-0.787 0.272c-1.128 0.361-2.037 0.42-3.412 0.114l-0.132-0.037c-9.048-3.016-11.867-17.675-4.318-23.708 2.419-1.613 4.416-1.742 7.182-0.975l0.416 0.119c-0.754-0.989-1.517-1.744-2.281-2.269-0.607-0.417-0.761-1.247-0.344-1.854zM7.5 9.041c-5.771 4.617-3.487 16.6 3.524 19.005 0.817 0.176 1.263 0.154 1.928-0.057l0.261-0.088 0.566-0.198c0.784-0.259 1.38-0.37 2.222-0.37s1.438 0.111 2.222 0.37l0.826 0.285c0.582 0.185 0.997 0.225 1.639 0.115l0.29-0.056 0.304-0.112c6.63-2.591 8.885-13.983 3.653-18.736l-0.428-0.369c-0.741-0.584-1.656-0.772-2.877-0.644-0.602 0.063-1.204 0.188-2.081 0.417l-1.62 0.431-0.468 0.116c-0.555 0.131-0.857 0.171-1.233 0.18l-0.368 0.002c-0.546-0.008-0.903-0.071-1.761-0.327l-1.397-0.432c-2.253-0.671-3.562-0.619-5.202 0.468z"></path>
</symbol>
<symbol id="icon-down_svg" viewBox="0 0 32 32">
<title>down_svg</title>
<path d="M16 19.448l8.391-8.391c0.521-0.521 1.365-0.521 1.886 0s0.521 1.365 0 1.886l-9.333 9.333c-0.521 0.521-1.365 0.521-1.886 0l-9.333-9.333c-0.521-0.521-0.521-1.365 0-1.886s1.365-0.521 1.886 0l8.391 8.391z"></path>
</symbol>
<symbol id="icon-download_svg" viewBox="0 0 32 32">
<title>download_svg</title>
<path d="M6.667 25.333h18.667c0.736 0 1.333 0.597 1.333 1.333 0 0.684-0.515 1.247-1.178 1.324l-0.155 0.009h-18.667c-0.736 0-1.333-0.597-1.333-1.333 0-0.684 0.515-1.247 1.178-1.324l0.155-0.009zM15.845 4.009l0.155-0.009c0.684 0 1.247 0.515 1.324 1.178l0.009 0.155v12.78l4.391-4.389c0.481-0.481 1.237-0.518 1.76-0.111l0.126 0.111c0.481 0.481 0.518 1.237 0.111 1.76l-0.111 0.126-6.667 6.667c-0.481 0.481-1.237 0.518-1.76 0.111l-0.126-0.111-6.667-6.667c-0.521-0.521-0.521-1.365 0-1.886 0.481-0.481 1.237-0.518 1.76-0.111l0.126 0.111 4.391 4.389v-12.78c0-0.684 0.515-1.247 1.178-1.324v0z"></path>
</symbol>
<symbol id="icon-document_svg" viewBox="0 0 32 32">
<title>document_svg</title>
<path d="M16.229 2.667c1.061 0 2.078 0.421 2.828 1.172l9.105 9.105c0.75 0.75 1.172 1.768 1.172 2.828v9.562c0 2.209-1.791 4-4 4h-18.667c-2.209 0-4-1.791-4-4v-18.667c0-2.209 1.791-4 4-4h9.562zM14.667 5.333h-8c-0.736 0-1.333 0.597-1.333 1.333v18.667c0 0.736 0.597 1.333 1.333 1.333h18.667c0.736 0 1.333-0.597 1.333-1.333v-8h-8c-2.13 0-3.872-1.665-3.993-3.765l-0.007-0.235v-8zM26.115 14.667l-8.781-8.781v7.448c0 0.684 0.515 1.247 1.178 1.324l0.155 0.009h7.448z"></path>
</symbol>
<symbol id="icon-deleteuser_svg" viewBox="0 0 32 32">
<title>deleteuser_svg</title>
<path d="M12 17.333c4.431 0 7.671 1.112 9.63 3.427 0.669 0.791 1.037 1.794 1.037 2.83v1.077c0 1.841-1.492 3.333-3.333 3.333h-14.667c-1.841 0-3.333-1.492-3.333-3.333v-1.077c0-1.036 0.367-2.039 1.037-2.83 1.959-2.315 5.199-3.427 9.63-3.427zM12 20c-3.718 0-6.22 0.858-7.594 2.483-0.262 0.31-0.406 0.702-0.406 1.107v1.077c0 0.368 0.298 0.667 0.667 0.667h14.667c0.368 0 0.667-0.298 0.667-0.667v-1.077c0-0.405-0.144-0.798-0.406-1.107-1.375-1.625-3.876-2.483-7.594-2.483zM21.333 13.333h8c0.736 0 1.333 0.597 1.333 1.333 0 0.684-0.515 1.247-1.178 1.324l-0.155 0.009h-8c-0.736 0-1.333-0.597-1.333-1.333 0-0.684 0.515-1.247 1.178-1.324l0.155-0.009zM12 4c2.946 0 5.333 2.388 5.333 5.333s-2.388 5.333-5.333 5.333c-2.946 0-5.333-2.388-5.333-5.333s2.388-5.333 5.333-5.333zM12 6.667c-1.473 0-2.667 1.194-2.667 2.667s1.194 2.667 2.667 2.667c1.473 0 2.667-1.194 2.667-2.667s-1.194-2.667-2.667-2.667z"></path>
</symbol>
<symbol id="icon-delete_svg" viewBox="0 0 32 32">
<title>delete_svg</title>
<path d="M24 8.667c0.736 0 1.333 0.597 1.333 1.333v14c0 2.209-1.791 4-4 4h-10.667c-2.209 0-4-1.791-4-4v-14c0-0.736 0.597-1.333 1.333-1.333h16zM22.667 11.333h-13.333v12.667c0 0.736 0.597 1.333 1.333 1.333h10.667c0.736 0 1.333-0.597 1.333-1.333v-12.667zM13.333 2.667h5.333c0.295 0 0.579 0.098 0.811 0.275l0.132 0.116 0.944 0.943h4.78c0.684 0 1.247 0.515 1.324 1.178l0.009 0.155c0 0.684-0.515 1.247-1.178 1.324l-0.155 0.009h-18.667c-0.736 0-1.333-0.597-1.333-1.333 0-0.684 0.515-1.247 1.178-1.324l0.155-0.009h4.779l0.945-0.943c0.208-0.208 0.479-0.341 0.768-0.379l0.175-0.012z"></path>
</symbol>
<symbol id="icon-delete_filled_svg" viewBox="0 0 32 32">
<title>delete_filled_svg</title>
<path d="M24 8.667c0.736 0 1.333 0.597 1.333 1.333v14c0 2.209-1.791 4-4 4h-10.667c-2.209 0-4-1.791-4-4v-14c0-0.736 0.597-1.333 1.333-1.333h16zM13.333 2.667h5.333c0.295 0 0.579 0.098 0.811 0.275l0.132 0.116 0.944 0.943h4.78c0.684 0 1.247 0.515 1.324 1.178l0.009 0.155c0 0.684-0.515 1.247-1.178 1.324l-0.155 0.009h-18.667c-0.736 0-1.333-0.597-1.333-1.333 0-0.684 0.515-1.247 1.178-1.324l0.155-0.009h4.779l0.945-0.943c0.208-0.208 0.479-0.341 0.768-0.379l0.175-0.012z"></path>
</symbol>
<symbol id="icon-data_svg" viewBox="0 0 32 32">
<title>data_svg</title>
<path d="M16 3.333c6.415 0 11.777 2.289 11.993 5.78l0.007 0.22v13.333c0 3.615-5.451 6-12 6-6.415 0-11.777-2.289-11.993-5.78l-0.007-0.22v-13.333c0-3.615 5.451-6 12-6zM25.333 22.667l0-2.784c-2.213 1.34-5.595 2.118-9.334 2.118s-7.119-0.777-9.332-2.117l-0.001 2.784c0 1.54 4.1 3.333 9.333 3.333 5.103 0 9.128-1.705 9.326-3.217l0.008-0.116zM16 15.333c-3.738 0-7.119-0.777-9.332-2.117l-0.001 2.784c0 1.54 4.1 3.333 9.333 3.333 5.103 0 9.128-1.705 9.326-3.217l0.008-0.116 0-2.784c-2.213 1.34-5.595 2.118-9.334 2.118zM16 6c-5.233 0-9.333 1.794-9.333 3.333s4.1 3.333 9.333 3.333c5.233 0 9.333-1.794 9.333-3.333s-4.1-3.333-9.333-3.333z"></path>
</symbol>
<symbol id="icon-copy_svg" viewBox="0 0 32 32">
<title>copy_svg</title>
<path d="M24 6.667c2.209 0 4 1.791 4 4v16c0 2.209-1.791 4-4 4h-12c-2.209 0-4-1.791-4-4v-16c0-2.209 1.791-4 4-4h12zM24 9.333h-12c-0.736 0-1.333 0.597-1.333 1.333v16c0 0.736 0.597 1.333 1.333 1.333h12c0.736 0 1.333-0.597 1.333-1.333v-16c0-0.736-0.597-1.333-1.333-1.333zM6.667 1.333h13.333c0.736 0 1.333 0.597 1.333 1.333 0 0.684-0.515 1.247-1.178 1.324l-0.155 0.009h-13.333c-0.684 0-1.247 0.515-1.324 1.178l-0.009 0.155v16c0 0.736-0.597 1.333-1.333 1.333-0.684 0-1.247-0.515-1.324-1.178l-0.009-0.155v-16c0-2.13 1.665-3.872 3.765-3.993l0.235-0.007z"></path>
</symbol>
<symbol id="icon-close_svg" viewBox="0 0 32 32">
<title>close_svg</title>
<path d="M6.946 7.183l0.111-0.126c0.481-0.481 1.237-0.518 1.76-0.111l0.126 0.111 7.057 7.056 7.057-7.056c0.521-0.521 1.365-0.521 1.886 0s0.521 1.365 0 1.886l-7.056 7.057 7.056 7.057c0.481 0.481 0.518 1.237 0.111 1.76l-0.111 0.126c-0.481 0.481-1.237 0.518-1.76 0.111l-0.126-0.111-7.057-7.056-7.057 7.056c-0.521 0.521-1.365 0.521-1.886 0s-0.521-1.365 0-1.886l7.056-7.057-7.056-7.057c-0.481-0.481-0.518-1.237-0.111-1.76v0z"></path>
</symbol>
<symbol id="icon-check_svg" viewBox="0 0 32 32">
<title>check_svg</title>
<path d="M6.276 16.391c-0.521-0.521-1.365-0.521-1.886 0s-0.521 1.365 0 1.886l6.667 6.667c0.521 0.521 1.365 0.521 1.886 0l14.667-14.667c0.521-0.521 0.521-1.365 0-1.886s-1.365-0.521-1.886 0l-13.724 13.724-5.724-5.724z"></path>
</symbol>
<symbol id="icon-checkbox_svg" viewBox="0 0 32 32">
<title>checkbox_svg</title>
<path d="M24 4c2.209 0 4 1.791 4 4v16c0 2.209-1.791 4-4 4h-16c-2.209 0-4-1.791-4-4v-16c0-2.209 1.791-4 4-4h16zM24 6.667h-16c-0.736 0-1.333 0.597-1.333 1.333v16c0 0.736 0.597 1.333 1.333 1.333h16c0.736 0 1.333-0.597 1.333-1.333v-16c0-0.736-0.597-1.333-1.333-1.333zM14 18.114l7.057-7.057c0.521-0.521 1.365-0.521 1.886 0 0.481 0.481 0.518 1.237 0.111 1.76l-0.111 0.126-8 8c-0.481 0.481-1.237 0.518-1.76 0.111l-0.126-0.111-3.333-3.333c-0.521-0.521-0.521-1.365 0-1.886 0.481-0.481 1.237-0.518 1.76-0.111l0.126 0.111 2.391 2.391z"></path>
</symbol>
<symbol id="icon-checkboxon_svg" viewBox="0 0 32 32">
<title>checkboxon_svg</title>
<path d="M24 4c2.209 0 4 1.791 4 4v16c0 2.209-1.791 4-4 4h-16c-2.209 0-4-1.791-4-4v-16c0-2.209 1.791-4 4-4h16zM23.057 9.724l-9.724 9.724-4.391-4.391c-0.521-0.521-1.365-0.521-1.886 0s-0.521 1.365 0 1.886l5.333 5.333c0.521 0.521 1.365 0.521 1.886 0l10.667-10.667c0.521-0.521 0.521-1.365 0-1.886s-1.365-0.521-1.886 0z"></path>
</symbol>
<symbol id="icon-checkboxempty_svg" viewBox="0 0 32 32">
<title>checkboxempty_svg</title>
<path d="M8 4h16c2.209 0 4 1.791 4 4v16c0 2.209-1.791 4-4 4h-16c-2.209 0-4-1.791-4-4v-16c0-2.209 1.791-4 4-4zM8 6.667c-0.736 0-1.333 0.597-1.333 1.333v16c0 0.736 0.597 1.333 1.333 1.333h16c0.736 0 1.333-0.597 1.333-1.333v-16c0-0.736-0.597-1.333-1.333-1.333h-16z"></path>
</symbol>
<symbol id="icon-checkboxblock_svg" viewBox="0 0 32 32">
<title>checkboxblock_svg</title>
<path d="M24 4c2.209 0 4 1.791 4 4v16c0 2.209-1.791 4-4 4h-16c-2.209 0-4-1.791-4-4v-16c0-2.209 1.791-4 4-4h16zM21.333 14.667h-10.667c-0.736 0-1.333 0.597-1.333 1.333s0.597 1.333 1.333 1.333h10.667c0.736 0 1.333-0.597 1.333-1.333s-0.597-1.333-1.333-1.333z"></path>
</symbol>
<symbol id="icon-chatsplaceholder_svg" viewBox="0 0 32 32">
<title>chatsplaceholder_svg</title>
<path d="M29.333 9.333c0.684 0 1.247 0.515 1.324 1.178l0.009 0.155v19.678c0 0.81-0.657 1.467-1.467 1.467-0.333 0-0.655-0.114-0.913-0.319l-0.124-0.11-4.715-4.715h-12.781c-0.736 0-1.333-0.597-1.333-1.333 0-0.684 0.515-1.247 1.178-1.324l0.155-0.009h10.667c3.585 0 6.509-2.83 6.66-6.377l0.006-0.289v-6.667l0.009-0.155c0.077-0.663 0.641-1.178 1.324-1.178zM21.333 1.333c2.209 0 4 1.791 4 4v12c0 2.209-1.791 4-4 4h-12.781l-4.715 4.715c-0.573 0.573-1.501 0.573-2.074 0-0.275-0.275-0.43-0.648-0.43-1.037v-19.678c0-2.209 1.791-4 4-4h16z"></path>
</symbol>
<symbol id="icon-channelviews_svg" viewBox="0 0 32 32">
<title>channelviews_svg</title>
<path d="M16 7.579c6.8 0 12.632 6.737 12.632 8.421s-5.831 8.421-12.632 8.421c-6.8 0-12.632-6.737-12.632-8.421s5.831-8.421 12.632-8.421zM16 10.105c-3.256 0-5.895 2.639-5.895 5.895s2.639 5.895 5.895 5.895c3.256 0 5.895-2.639 5.895-5.895s-2.639-5.895-5.895-5.895zM16 13.053c1.628 0 2.947 1.32 2.947 2.947s-1.32 2.947-2.947 2.947c-1.628 0-2.947-1.32-2.947-2.947s1.32-2.947 2.947-2.947z"></path>
</symbol>
<symbol id="icon-channel_svg" viewBox="0 0 32 32">
<title>channel_svg</title>
<path d="M24.667 2.238c1.841 0 3.333 1.492 3.333 3.333v20.857c0 0.773-0.269 1.522-0.76 2.119-1.17 1.421-3.271 1.624-4.692 0.454l-6.548-5.393v2.391c0 2.13-1.665 3.872-3.765 3.993l-0.235 0.007c-2.13 0-3.872-1.665-3.993-3.765l-0.007-0.235-0-3.467c-3.043-0.618-5.333-3.308-5.333-6.533 0-3.682 2.985-6.667 6.667-6.667h5.522l7.693-6.335c0.597-0.491 1.346-0.76 2.119-0.76zM10.667 22.666v3.334c0 0.736 0.597 1.333 1.333 1.333 0.684 0 1.247-0.515 1.324-1.178l0.009-0.155v-3.334h-2.667zM24.667 4.905c-0.155 0-0.304 0.054-0.424 0.152l-7.693 6.335c-0.477 0.393-1.077 0.608-1.695 0.608h-5.522c-2.209 0-4 1.791-4 4s1.791 4 4 4h5.522c0.619 0 1.218 0.215 1.695 0.608l7.693 6.335c0.284 0.234 0.704 0.193 0.938-0.091 0.098-0.119 0.152-0.269 0.152-0.424v-20.857c0-0.368-0.298-0.667-0.667-0.667z"></path>
</symbol>
<symbol id="icon-car_svg" viewBox="0 0 32 32">
<title>car_svg</title>
<path d="M30.667 26.667c0 2.209-1.791 4-4 4s-4-1.791-4-4h-13.333c0 2.209-1.791 4-4 4-2.13 0-3.872-1.665-3.993-3.765l-0.007-0.235v-9.353c0-1.015 0.166-2.023 0.49-2.985l2.371-7.024c0.924-2.738 3.252-4.764 6.091-5.302 2.349-0.445 4.249-0.67 5.715-0.67s3.365 0.225 5.715 0.67c2.839 0.538 5.167 2.564 6.091 5.302l2.371 7.024c0.325 0.962 0.49 1.97 0.49 2.985v9.353zM4 25.953l0 0.714c0 0.736 0.597 1.333 1.333 1.333 0.684 0 1.247-0.515 1.324-1.178l0.009-0.155c-0.971 0-1.882-0.26-2.667-0.714zM25.333 26.667c0 0.736 0.597 1.333 1.333 1.333s1.333-0.597 1.333-1.333l0.001-0.714c-0.785 0.454-1.696 0.714-2.668 0.714zM27.65 15.182l-0.293-0.866c-0.46 0.231-0.963 0.372-1.482 0.413l-0.313 0.012h-19.124c-0.629 0-1.243-0.148-1.795-0.425l-0.293 0.866c-0.232 0.687-0.35 1.407-0.35 2.132v4.020c0 1.473 1.194 2.667 2.667 2.667h18.667c1.473 0 2.667-1.194 2.667-2.667v-4.020c0-0.725-0.118-1.445-0.35-2.132v0zM8.667 17.333c1.105 0 2 0.895 2 2s-0.895 2-2 2c-1.105 0-2-0.895-2-2s0.895-2 2-2zM23.333 17.333c1.105 0 2 0.895 2 2s-0.895 2-2 2c-1.105 0-2-0.895-2-2s0.895-2 2-2zM16 4c-1.274 0-3.019 0.206-5.219 0.623-1.893 0.358-3.445 1.71-4.061 3.535l-1.199 3.552c0.206 0.195 0.468 0.318 0.747 0.354l0.169 0.011 9.734-0c0.55-1.966 2.354-3.407 4.495-3.407s3.945 1.442 4.495 3.407l0.401 0c0.295 0 0.579-0.098 0.811-0.275l0.103-0.093-1.197-3.549c-0.616-1.825-2.168-3.176-4.061-3.535-2.2-0.417-3.945-0.623-5.219-0.623zM20.667 11.333c-0.627 0-1.186 0.288-1.553 0.739h3.105c-0.367-0.451-0.926-0.739-1.553-0.739z"></path>
</symbol>
<symbol id="icon-camera_svg" viewBox="0 0 32 32">
<title>camera_svg</title>
<path d="M19.448 2.667c0.707 0 1.386 0.281 1.886 0.781l1.886 1.886h2.114c2.209 0 4 1.791 4 4v14.667c0 2.209-1.791 4-4 4h-18.667c-2.209 0-4-1.791-4-4v-14.667c0-2.209 1.791-4 4-4h2.114l1.886-1.886c0.5-0.5 1.178-0.781 1.886-0.781h6.895zM19.448 5.333h-6.895l-1.886 1.886c-0.5 0.5-1.178 0.781-1.886 0.781h-2.114c-0.736 0-1.333 0.597-1.333 1.333v14.667c0 0.736 0.597 1.333 1.333 1.333h18.667c0.736 0 1.333-0.597 1.333-1.333v-14.667c0-0.736-0.597-1.333-1.333-1.333h-2.114c-0.707 0-1.386-0.281-1.886-0.781l-1.886-1.886zM16 9.333c3.682 0 6.667 2.985 6.667 6.667s-2.985 6.667-6.667 6.667c-3.682 0-6.667-2.985-6.667-6.667s2.985-6.667 6.667-6.667zM16 12c-2.209 0-4 1.791-4 4s1.791 4 4 4c2.209 0 4-1.791 4-4s-1.791-4-4-4z"></path>
</symbol>
<symbol id="icon-cameraadd_svg" viewBox="0 0 32 32">
<title>cameraadd_svg</title>
<path d="M26.511 21.342l0.155-0.009c0.684 0 1.247 0.515 1.324 1.178l0.009 0.155v2.667h2.667c0.684 0 1.247 0.515 1.324 1.178l0.009 0.155c0 0.684-0.515 1.247-1.178 1.324l-0.155 0.009h-2.667v2.667c0 0.684-0.515 1.247-1.178 1.324l-0.155 0.009c-0.684 0-1.247-0.515-1.324-1.178l-0.009-0.155v-2.667h-2.667c-0.684 0-1.247-0.515-1.324-1.178l-0.009-0.155c0-0.684 0.515-1.247 1.178-1.324l0.155-0.009h2.667v-2.667c0-0.684 0.515-1.247 1.178-1.324v0zM11.219 2.667h6.895c0.629 0 1.234 0.222 1.713 0.623l0.173 0.159 1.886 1.886h2.114c2.13 0 3.872 1.665 3.993 3.765l0.007 0.235v6.667c0 0.736-0.597 1.333-1.333 1.333-0.684 0-1.247-0.515-1.324-1.178l-0.009-0.155v-6.667c0-0.684-0.515-1.247-1.178-1.324l-0.155-0.009h-2.114c-0.629 0-1.234-0.222-1.713-0.623l-0.173-0.159-1.886-1.886h-6.895l-1.886 1.886c-0.445 0.445-1.030 0.716-1.651 0.771l-0.234 0.010h-2.114c-0.684 0-1.247 0.515-1.324 1.178l-0.009 0.155v14.667c0 0.684 0.515 1.247 1.178 1.324l0.155 0.009h12c0.736 0 1.333 0.597 1.333 1.333 0 0.684-0.515 1.247-1.178 1.324l-0.155 0.009h-12c-2.13 0-3.872-1.665-3.993-3.765l-0.007-0.235v-14.667c0-2.13 1.665-3.872 3.765-3.993l0.235-0.007h2.114l1.886-1.886c0.445-0.445 1.030-0.716 1.651-0.771l0.234-0.010zM14.667 9.333c3.682 0 6.667 2.985 6.667 6.667s-2.985 6.667-6.667 6.667c-3.682 0-6.667-2.985-6.667-6.667s2.985-6.667 6.667-6.667zM14.667 12c-2.209 0-4 1.791-4 4s1.791 4 4 4c2.209 0 4-1.791 4-4s-1.791-4-4-4z"></path>
</symbol>
<symbol id="icon-back_svg" viewBox="0 0 32 32">
<title>back_svg</title>
<path d="M5.724 15.057l9.333-9.333c0.521-0.521 1.365-0.521 1.886 0 0.481 0.481 0.518 1.237 0.111 1.76l-0.111 0.126-7.057 7.057h15.448c0.684 0 1.247 0.515 1.324 1.178l0.009 0.155c0 0.684-0.515 1.247-1.178 1.324l-0.155 0.009h-15.448l7.057 7.057c0.481 0.481 0.518 1.237 0.111 1.76l-0.111 0.126c-0.481 0.481-1.237 0.518-1.76 0.111l-0.126-0.111-9.333-9.333c-0.481-0.481-0.518-1.237-0.111-1.76l0.111-0.126z"></path>
</symbol>
<symbol id="icon-avatar_savedmessages_svg" viewBox="0 0 32 32">
<title>avatar_savedmessages_svg</title>
<path d="M10.954 23.037c-0.395 0.219-0.88-0.066-0.88-0.518v-11.259c0-1.309 1.061-2.37 2.37-2.37h7.111c1.309 0 2.37 1.061 2.37 2.37v11.259c0 0.452-0.485 0.737-0.88 0.518l-5.046-2.803-5.046 2.803zM20.741 11.259c0-0.655-0.531-1.185-1.185-1.185h-7.111c-0.655 0-1.185 0.531-1.185 1.185v10.252l4.453-2.474c0.179-0.099 0.397-0.099 0.576 0l4.453 2.474v-10.252z"></path>
</symbol>
<symbol id="icon-avatar_deletedaccount_svg" viewBox="0 0 32 32">
<title>avatar_deletedaccount_svg</title>
<path d="M16 8.296c3.273 0 5.926 2.653 5.926 5.926v8.296c0 0.528-0.638 0.792-1.012 0.419l-1.359-1.359-1.359 1.359c-0.231 0.231-0.607 0.231-0.838 0l-1.359-1.359-1.359 1.359c-0.231 0.231-0.607 0.231-0.838 0l-1.359-1.359-1.359 1.359c-0.373 0.373-1.012 0.109-1.012-0.419v-8.296c0-3.273 2.653-5.926 5.926-5.926zM16 9.481c-2.618 0-4.741 2.123-4.741 4.741v6.866l0.766-0.766c0.231-0.231 0.607-0.231 0.838 0l1.359 1.359 1.359-1.359c0.231-0.231 0.607-0.231 0.838 0l1.359 1.359 1.359-1.359c0.231-0.231 0.607-0.231 0.838 0l0.766 0.766v-6.866c0-2.618-2.122-4.741-4.741-4.741zM13.63 13.037c0.655 0 1.185 0.531 1.185 1.185s-0.531 1.185-1.185 1.185c-0.655 0-1.185-0.531-1.185-1.185s0.531-1.185 1.185-1.185zM18.37 13.037c0.655 0 1.185 0.531 1.185 1.185s-0.531 1.185-1.185 1.185c-0.655 0-1.185-0.531-1.185-1.185s0.531-1.185 1.185-1.185z"></path>
</symbol>
<symbol id="icon-avatar_archivedchats_svg" viewBox="0 0 32 32">
<title>avatar_archivedchats_svg</title>
<path d="M12.858 8.889h6.283c0.789 0 1.523 0.392 1.962 1.040l0.070 0.11 1.007 1.678c0.196 0.327 0.311 0.697 0.334 1.077l0.004 0.143v7.804c0 1.309-1.061 2.37-2.37 2.37h-8.296c-1.309 0-2.37-1.061-2.37-2.37v-7.804c0-0.382 0.092-0.757 0.268-1.095l0.070-0.125 1.007-1.678c0.406-0.676 1.12-1.104 1.902-1.147l0.131-0.004zM20.148 12.444h-8.296c-0.655 0-1.185 0.531-1.185 1.185v7.111c0 0.655 0.531 1.185 1.185 1.185h8.296c0.655 0 1.185-0.531 1.185-1.185v-7.111c0-0.655-0.531-1.185-1.185-1.185zM13.803 16.174c0.214-0.214 0.55-0.23 0.782-0.049l0.056 0.049 1.359 1.359 1.359-1.359c0.231-0.231 0.607-0.231 0.838 0 0.214 0.214 0.23 0.55 0.049 0.782l-0.049 0.056-1.778 1.778c-0.214 0.214-0.55 0.23-0.782 0.049l-0.056-0.049-1.778-1.778c-0.231-0.231-0.231-0.607 0-0.838zM19.142 10.074h-6.283c-0.384 0-0.743 0.186-0.964 0.496l-0.052 0.080-0.386 0.643c0.129-0.022 0.261-0.033 0.396-0.033h8.296c0.135 0 0.267 0.011 0.396 0.033l-0.386-0.643c-0.198-0.33-0.542-0.541-0.921-0.572l-0.095-0.004z"></path>
</symbol>
<symbol id="icon-attach_svg" viewBox="0 0 32 32">
<title>attach_svg</title>
<path d="M15.544 11.583l-5.019 5.119c-1.805 1.842-1.805 4.789 0 6.631 1.716 1.751 4.488 1.84 6.312 0.248l0.239-0.224 8.781-8.956c2.778-2.834 2.778-7.37 0-10.204-2.65-2.703-6.942-2.822-9.736-0.326l-0.341 0.326-8.757 8.932c-3.751 3.826-3.751 9.95 0 13.777 3.593 3.665 9.425 3.805 13.188 0.378l0.392-0.378 5.019-5.119c0.515-0.526 0.507-1.37-0.019-1.886s-1.37-0.507-1.886 0.019l-5.114 5.215c-2.698 2.646-7.031 2.603-9.676-0.096-2.735-2.789-2.735-7.254 0-10.043l8.819-8.994c1.731-1.697 4.511-1.67 6.208 0.061 1.762 1.797 1.762 4.673 0 6.47l-8.784 8.959c-0.764 0.749-1.99 0.737-2.739-0.027-0.789-0.805-0.789-2.093-0-2.897l5.019-5.119c0.515-0.526 0.507-1.37-0.019-1.886s-1.37-0.507-1.886 0.019z"></path>
</symbol>
<symbol id="icon-archive_svg" viewBox="0 0 32 32">
<title>archive_svg</title>
<path d="M10 1.333h12c1.574 0 3.061 0.695 4.071 1.888l0.195 0.245 2 2.667c0.623 0.831 0.989 1.823 1.055 2.855l0.011 0.345v14.667c0 2.946-2.388 5.333-5.333 5.333h-16c-2.946 0-5.333-2.388-5.333-5.333v-14.667c0-1.039 0.303-2.052 0.869-2.917l0.198-0.283 2-2.667c0.944-1.259 2.393-2.032 3.953-2.124l0.313-0.009zM24 9.333h-16c-1.473 0-2.667 1.194-2.667 2.667v12c0 1.473 1.194 2.667 2.667 2.667h16c1.473 0 2.667-1.194 2.667-2.667v-12c0-1.473-1.194-2.667-2.667-2.667zM11.057 15.057c0.481-0.481 1.237-0.518 1.76-0.111l0.126 0.111 3.057 3.057 3.057-3.057c0.521-0.521 1.365-0.521 1.886 0 0.481 0.481 0.518 1.237 0.111 1.76l-0.111 0.126-4 4c-0.481 0.481-1.237 0.518-1.76 0.111l-0.126-0.111-4-4c-0.521-0.521-0.521-1.365 0-1.886zM22 4h-12c-0.763 0-1.486 0.327-1.989 0.89l-0.144 0.176-1.359 1.812c0.474-0.138 0.975-0.212 1.493-0.212h16c0.518 0 1.018 0.074 1.491 0.211l-1.358-1.811c-0.458-0.61-1.153-0.993-1.906-1.057l-0.228-0.010z"></path>
</symbol>
<symbol id="icon-animals_svg" viewBox="0 0 32 32">
<title>animals_svg</title>
<path d="M25.333 2c3.029 0 5.138 5.119 4.047 11.215 0.348 0.934 0.669 1.953 0.904 2.91l0.535-0.101c0.724-0.137 1.421 0.339 1.557 1.063 0.127 0.672-0.275 1.321-0.912 1.52l-0.151 0.038-0.65 0.122-0.003 0.224c-0.031 0.8-0.174 1.584-0.415 2.343l0.821 0.001c0.736 0 1.334 0.597 1.334 1.333 0 0.684-0.515 1.247-1.178 1.324l-0.155 0.009-2.125-0c-2.619 3.907-7.837 6.667-12.942 6.667s-10.323-2.76-12.942-6.667l-2.125 0c-0.736 0-1.334-0.597-1.334-1.333 0-0.684 0.515-1.247 1.178-1.324l0.155-0.009 0.821-0.001c-0.264-0.83-0.41-1.69-0.421-2.567l-0.648-0.122c-0.724-0.137-1.2-0.834-1.063-1.557 0.127-0.672 0.737-1.13 1.403-1.083l0.154 0.020 0.536 0.102c0.234-0.957 0.556-1.976 0.904-2.911-1.012-5.825 1.468-11.214 4.046-11.214 0.542 0 0.863 0.166 1.407 0.636l0.357 0.319 1.62 1.547 0.389 0.355c0.39 0.348 0.722 0.614 0.994 0.794l0.23 0.14 0.12 0.059c1.707-0.393 2.641-0.517 4.217-0.517 1.427 0 2.329 0.101 3.822 0.43l0.366 0.083 0.060-0.026 0.158-0.086c0.251-0.149 0.561-0.383 0.93-0.698l0.228-0.199c0.181-0.161 0.373-0.338 0.59-0.542l1.416-1.345 0.357-0.317c0.545-0.467 0.867-0.633 1.407-0.633zM25.502 4.799l-0.14 0.125-1.258 1.195-0.564 0.526-0.459 0.407c-1.407 1.216-2.367 1.736-3.383 1.414-1.576-0.365-2.322-0.466-3.699-0.466-1.361 0-2.103 0.099-3.643 0.454-1.087 0.337-2.052-0.182-3.43-1.375l-0.474-0.422-0.452-0.422-1.328-1.273c-0.306 0.355-0.613 0.84-0.873 1.419-0.786 1.747-1.030 4.002-0.492 6.696l0.076 0.382-0.269 0.699c-0.292 0.787-0.567 1.663-0.772 2.463l3.904 0.735c0.724 0.137 1.2 0.834 1.063 1.557-0.127 0.672-0.737 1.13-1.403 1.083l-0.154-0.020-3.72-0.701c0.074 0.7 0.274 1.39 0.58 2.057l3.388 0.001c0.736 0 1.333 0.597 1.333 1.333 0 0.684-0.515 1.247-1.178 1.324l-0.155 0.009-1.5-0.001c2.324 2.357 5.951 4.001 9.5 4.001s7.176-1.644 9.5-4.001l-1.5 0.001c-0.736 0-1.333-0.597-1.333-1.333 0-0.684 0.515-1.247 1.178-1.324l0.155-0.009 3.388-0.001c0.305-0.667 0.505-1.357 0.58-2.057l-3.72 0.701c-0.724 0.137-1.421-0.339-1.557-1.063-0.127-0.672 0.275-1.321 0.912-1.52l0.151-0.038 3.904-0.735c-0.204-0.801-0.48-1.677-0.772-2.465l-0.269-0.699 0.076-0.382c0.556-2.78 0.402-5.082-0.264-6.747-0.277-0.693-0.617-1.182-0.846-1.443l-0.080-0.087zM15.426 18.667h1.241l0.142 0.007 0.148 0.024 0.143 0.041 0.142 0.058 0.074 0.038 0.061 0.036 0.096 0.067 0.13 0.112c0.054 0.054 0.1 0.108 0.142 0.164l0.058 0.086c0.027 0.043 0.051 0.088 0.073 0.134l0.050 0.123 0.048 0.17 0.023 0.158 0.005 0.115-0.008 0.147-0.036 0.195-0.024 0.079-0.579 1.737 0.035 0.105c0.102 0.237 0.338 0.402 0.612 0.402 0.368 0 0.667-0.298 0.667-0.667 0-0.736 0.597-1.333 1.333-1.333s1.333 0.597 1.333 1.333c0 1.841-1.492 3.333-3.333 3.333-0.751 0-1.444-0.248-2.001-0.667-0.556 0.419-1.248 0.667-1.999 0.667-1.841 0-3.333-1.492-3.333-3.333 0-0.736 0.597-1.333 1.333-1.333s1.333 0.597 1.333 1.333c0 0.368 0.298 0.667 0.667 0.667 0.274 0 0.51-0.166 0.612-0.402l0.035-0.105-0.55-1.65c-0.245-0.734 0.152-1.526 0.885-1.771l0.149-0.040 0.103-0.019 0.191-0.013zM20.667 13.333c1.105 0 2 0.895 2 2s-0.895 2-2 2c-1.105 0-2-0.895-2-2s0.895-2 2-2zM11.333 13.333c1.105 0 2 0.895 2 2s-0.895 2-2 2c-1.105 0-2-0.895-2-2s0.895-2 2-2zM20.288 5.869l-0.1-0.023-0.049 0.019 0.056-0.005 0.051 0.002 0.043 0.007z"></path>
</symbol>
<symbol id="icon-admin_svg" viewBox="0 0 32 32">
<title>admin_svg</title>
<path d="M16.007 0.667c0.504 0 0.88 0.077 1.607 0.287l1.477 0.509 1.471 0.52c1.549 0.552 3.271 1.178 4.632 1.685l1.346 0.508c1.971 0.768 2.793 1.768 2.793 3.806v10.905l-0.007 0.533c-0.131 4.604-2.087 6.503-10.706 11.391l-0.986 0.556c-0.526 0.288-1.109 0.468-1.627 0.468s-1.101-0.18-1.646-0.478l-1.903-1.092-1.336-0.785c-6.791-4.045-8.341-5.92-8.45-10.081l-0.006-0.512v-10.905c0-1.95 0.776-2.986 2.542-3.708l0.982-0.373 1.564-0.573 6.69-2.387c0.621-0.185 1.053-0.273 1.562-0.273zM16.001 24c-2.776 0-5.015 0.398-6.722 1.172 1.251 0.861 2.887 1.848 5.018 3.075l1.364 0.78c0.098 0.054 0.197 0.094 0.264 0.117l0.083 0.024 0.082-0.023 0.161-0.065c0.030-0.014 0.061-0.029 0.091-0.046l0.915-0.516c2.369-1.341 4.157-2.405 5.5-3.331-1.711-0.783-3.963-1.187-6.757-1.187zM16.007 3.333c-0.15 0-0.321 0.029-0.55 0.089l-0.183 0.051-7.276 2.603-1.764 0.657-0.291 0.12c-0.509 0.229-0.599 0.417-0.61 0.979v11.25l0.011 0.388c0.069 1.553 0.453 2.676 1.703 3.921 0.087-0.091 0.19-0.171 0.306-0.235 2.213-1.226 5.096-1.822 8.646-1.822s6.433 0.597 8.646 1.822c0.122 0.068 0.229 0.151 0.32 0.247 1.374-1.388 1.699-2.652 1.699-4.517v-10.905c0-0.729-0.056-0.889-0.751-1.183l-0.338-0.136-1.479-0.557-2.378-0.872c-1.112-0.404-2.251-0.811-3.225-1.154l-1.674-0.58-0.322-0.088c-0.227-0.057-0.361-0.077-0.491-0.077zM16 8c2.946 0 5.333 2.388 5.333 5.333s-2.388 5.333-5.333 5.333c-2.946 0-5.333-2.388-5.333-5.333s2.388-5.333 5.333-5.333zM16 10.667c-1.473 0-2.667 1.194-2.667 2.667s1.194 2.667 2.667 2.667c1.473 0 2.667-1.194 2.667-2.667s-1.194-2.667-2.667-2.667z"></path>
</symbol>
<symbol id="icon-adduser_svg" viewBox="0 0 32 32">
<title>adduser_svg</title>
<path d="M12 17.333c4.431 0 7.671 1.112 9.63 3.427 0.669 0.791 1.037 1.794 1.037 2.83v1.077c0 1.841-1.492 3.333-3.333 3.333h-14.667c-1.841 0-3.333-1.492-3.333-3.333v-1.077c0-1.036 0.367-2.039 1.037-2.83 1.959-2.315 5.199-3.427 9.63-3.427zM12 20c-3.718 0-6.22 0.858-7.594 2.483-0.262 0.31-0.406 0.702-0.406 1.107v1.077c0 0.368 0.298 0.667 0.667 0.667h14.667c0.368 0 0.667-0.298 0.667-0.667v-1.077c0-0.405-0.144-0.798-0.406-1.107-1.375-1.625-3.876-2.483-7.594-2.483zM25.178 9.342l0.155-0.009c0.684 0 1.247 0.515 1.324 1.178l0.009 0.155v2.667h2.667c0.684 0 1.247 0.515 1.324 1.178l0.009 0.155c0 0.684-0.515 1.247-1.178 1.324l-0.155 0.009h-2.667v2.667c0 0.684-0.515 1.247-1.178 1.324l-0.155 0.009c-0.684 0-1.247-0.515-1.324-1.178l-0.009-0.155v-2.667h-2.667c-0.684 0-1.247-0.515-1.324-1.178l-0.009-0.155c0-0.684 0.515-1.247 1.178-1.324l0.155-0.009h2.667v-2.667c0-0.684 0.515-1.247 1.178-1.324v0zM12 4c2.946 0 5.333 2.388 5.333 5.333s-2.388 5.333-5.333 5.333c-2.946 0-5.333-2.388-5.333-5.333s2.388-5.333 5.333-5.333zM12 6.667c-1.473 0-2.667 1.194-2.667 2.667s1.194 2.667 2.667 2.667c1.473 0 2.667-1.194 2.667-2.667s-1.194-2.667-2.667-2.667z"></path>
</symbol>
<symbol id="icon-add_svg" viewBox="0 0 32 32">
<title>add_svg</title>
<path d="M15.845 5.342l0.155-0.009c0.684 0 1.247 0.515 1.324 1.178l0.009 0.155v8h8c0.684 0 1.247 0.515 1.324 1.178l0.009 0.155c0 0.684-0.515 1.247-1.178 1.324l-0.155 0.009h-8v8c0 0.684-0.515 1.247-1.178 1.324l-0.155 0.009c-0.684 0-1.247-0.515-1.324-1.178l-0.009-0.155v-8h-8c-0.684 0-1.247-0.515-1.324-1.178l-0.009-0.155c0-0.684 0.515-1.247 1.178-1.324l0.155-0.009h8v-8c0-0.684 0.515-1.247 1.178-1.324v0z"></path>
</symbol>
<symbol id="icon-addmember_filled_svg" viewBox="0 0 32 32">
<title>addmember_filled_svg</title>
<path d="M12 17.333c4.431 0 7.671 1.112 9.63 3.427 0.669 0.791 1.037 1.794 1.037 2.83v1.743c0 1.473-1.194 2.667-2.667 2.667h-16c-1.473 0-2.667-1.194-2.667-2.667v-1.743c0-1.036 0.367-2.039 1.037-2.83 1.959-2.315 5.199-3.427 9.63-3.427zM25.178 9.342l0.155-0.009c0.684 0 1.247 0.515 1.324 1.178l0.009 0.155v2.667h2.667c0.684 0 1.247 0.515 1.324 1.178l0.009 0.155c0 0.684-0.515 1.247-1.178 1.324l-0.155 0.009h-2.667v2.667c0 0.684-0.515 1.247-1.178 1.324l-0.155 0.009c-0.684 0-1.247-0.515-1.324-1.178l-0.009-0.155v-2.667h-2.667c-0.684 0-1.247-0.515-1.324-1.178l-0.009-0.155c0-0.684 0.515-1.247 1.178-1.324l0.155-0.009h2.667v-2.667c0-0.684 0.515-1.247 1.178-1.324v0zM12 4c2.946 0 5.333 2.388 5.333 5.333s-2.388 5.333-5.333 5.333c-2.946 0-5.333-2.388-5.333-5.333s2.388-5.333 5.333-5.333z"></path>
</symbol>
<symbol id="icon-activesessions_svg" viewBox="0 0 32 32">
<title>activesessions_svg</title>
<path d="M5.333 2.667h18.667c2.856 0 5.188 2.245 5.327 5.067l0.007 0.266v2.667c0 0.736-0.597 1.333-1.333 1.333-0.684 0-1.247-0.515-1.324-1.178l-0.009-0.155v-2.667c0-1.406-1.088-2.558-2.468-2.659l-0.199-0.007h-18.667c-1.406 0-2.558 1.088-2.659 2.468l-0.007 0.199v10.667c0 1.406 1.088 2.558 2.468 2.659l0.199 0.007h13.333c0.736 0 1.333 0.597 1.333 1.333 0 0.684-0.515 1.247-1.178 1.324l-0.155 0.009h-2.667v2.667h2.667c0.684 0 1.247 0.515 1.324 1.178l0.009 0.155c0 0.684-0.515 1.247-1.178 1.324l-0.155 0.009h-8c-0.736 0-1.333-0.597-1.333-1.333 0-0.684 0.515-1.247 1.178-1.324l0.155-0.009h2.667v-2.667h-8c-2.856 0-5.188-2.245-5.327-5.067l-0.007-0.266v-10.667c0-2.856 2.245-5.188 5.067-5.327l0.266-0.007zM29.333 14.667c1.473 0 2.667 1.194 2.667 2.667v9.333c0 1.473-1.194 2.667-2.667 2.667h-4c-1.473 0-2.667-1.194-2.667-2.667v-9.333c0-1.473 1.194-2.667 2.667-2.667h4zM29.333 17.333h-4v9.333h4v-9.333z"></path>
</symbol>
<symbol id="icon-checks_svg" viewBox="0 0 32 32">
<title>checks_svg</title>
<path d="M8.368 21.135l11.019-12.593c0.398-0.455 1.090-0.501 1.545-0.103 0.41 0.358 0.488 0.954 0.209 1.402l-0.106 0.143-11.789 13.474c-0.375 0.429-1.007 0.492-1.456 0.173l-0.142-0.12-5.053-5.053c-0.428-0.428-0.428-1.121 0-1.548 0.385-0.385 0.985-0.423 1.413-0.115l0.136 0.115 4.225 4.225zM16.789 21.135l11.019-12.593c0.398-0.455 1.090-0.501 1.545-0.103 0.41 0.358 0.488 0.954 0.209 1.402l-0.106 0.143-11.789 13.474c-0.375 0.429-1.007 0.492-1.456 0.173l-0.142-0.12-1.684-1.684c-0.428-0.428-0.428-1.121 0-1.548 0.385-0.385 0.985-0.423 1.412-0.115l0.136 0.115 0.857 0.857z"></path>
</symbol>
<symbol id="icon-check_svg1" viewBox="0 0 32 32">
<title>check_svg1</title>
<path d="M13.42 21.135l11.019-12.593c0.398-0.455 1.090-0.501 1.545-0.103 0.41 0.358 0.488 0.954 0.209 1.402l-0.106 0.143-11.789 13.474c-0.375 0.429-1.007 0.492-1.456 0.173l-0.142-0.12-5.053-5.053c-0.428-0.428-0.428-1.121 0-1.548 0.385-0.385 0.985-0.423 1.413-0.115l0.136 0.115 4.225 4.225z"></path>
</symbol>
</defs>
</svg>
